<svg xmlns="http://www.w3.org/2000/svg" width="206" height="31" viewBox="0 0 206 31">
  <g id="CTA" transform="translate(-47 -50)">
    <rect id="Rectangle_9" data-name="Rectangle 9" width="206" height="31" rx="15.5" transform="translate(47 50)" fill="#00416b"/>
    <path id="Path_72" data-name="Path 72" d="M-80.137-9.3h.645c.99,0,1.335.375,1.335,1.515v4.74c0,1.14-.345,1.515-1.335,1.515h-.645ZM-82,0h2.76c1.92,0,2.94-1.05,2.94-3.27V-7.56c0-2.22-1.02-3.27-2.94-3.27H-82Zm9.915,0V-10.83h-1.86V0Zm7.515-8.355a2.6,2.6,0,0,0-2.58-2.625c-1.83,0-2.88.975-2.88,2.7,0,3.1,3.78,3.675,3.78,5.82a.956.956,0,0,1-1.08.99c-.6,0-1.035-.54-1.11-1.635l-1.77.255a2.854,2.854,0,0,0,2.79,3,2.653,2.653,0,0,0,2.94-2.775c0-2.94-3.78-3.825-3.78-5.67,0-.675.33-1.065.93-1.065.42,0,.915.27.99,1.2Zm7.41,1.14V-8.01a2.685,2.685,0,0,0-2.76-2.97A2.6,2.6,0,0,0-62.767-8.2v5.58A2.6,2.6,0,0,0-59.917.15a2.577,2.577,0,0,0,2.76-2.775V-3.87h-1.86v1.3c0,.705-.225,1.1-.9,1.1-.75,0-.99-.39-.99-1.2V-8.16c0-.81.24-1.2.99-1.2.48,0,.9.39.9,1.305v.84Zm2.19,4.59A2.6,2.6,0,0,0-52.118.15a2.6,2.6,0,0,0,2.85-2.775V-8.2a2.6,2.6,0,0,0-2.85-2.775A2.6,2.6,0,0,0-54.967-8.2Zm1.86-5.535c0-.81.24-1.2.99-1.2s.99.39.99,1.2v5.49c0,.81-.24,1.2-.99,1.2s-.99-.39-.99-1.2Zm8.385,4.845h-.03L-46.1-10.83h-1.83L-45.667,0h1.86l2.265-10.83h-1.83ZM-35.017,0V-1.62h-3.33V-4.8h2.4V-6.42h-2.4V-9.21h3.12v-1.62h-4.98V0Zm3.63-9.3h.66c1,0,1.38.375,1.38,1.665s-.375,1.665-1.38,1.665h-.66Zm0,4.86a8.971,8.971,0,0,0,.96-.045L-29.107,0h1.89l-1.575-4.9c.63-.285,1.305-.99,1.305-2.73,0-2.31-1.065-3.195-3.15-3.195h-2.61V0h1.86ZM-20.737,0h1.86V-9.21h1.8v-1.62h-5.46v1.62h1.8Zm6.915,0V-4.8h1.98V0h1.86V-10.83h-1.86v4.41h-1.98v-4.41h-1.86V0Zm11.13,0V-1.62h-3.33V-4.8h2.4V-6.42h-2.4V-9.21H-2.9v-1.62h-4.98V0Zm7.26-9.3h.72c1.215,0,1.59.375,1.59,1.665S6.5-5.97,5.288-5.97h-.72Zm0,9.3V-4.44h.81c2.3,0,3.36-.885,3.36-3.2S7.673-10.83,5.378-10.83H2.708V0Zm5.94-2.625A2.6,2.6,0,0,0,13.357.15a2.6,2.6,0,0,0,2.85-2.775V-8.2a2.6,2.6,0,0,0-2.85-2.775A2.6,2.6,0,0,0,10.507-8.2Zm1.86-5.535c0-.81.24-1.2.99-1.2s.99.39.99,1.2v5.49c0,.81-.24,1.2-.99,1.2s-.99-.39-.99-1.2Zm11.1-.195a2.6,2.6,0,0,0-2.58-2.625c-1.83,0-2.88.975-2.88,2.7,0,3.1,3.78,3.675,3.78,5.82a.956.956,0,0,1-1.08.99c-.6,0-1.035-.54-1.11-1.635l-1.77.255a2.854,2.854,0,0,0,2.79,3,2.653,2.653,0,0,0,2.94-2.775c0-2.94-3.78-3.825-3.78-5.67,0-.675.33-1.065.93-1.065.42,0,.915.27.99,1.2Zm6.96,0a2.6,2.6,0,0,0-2.58-2.625c-1.83,0-2.88.975-2.88,2.7,0,3.1,3.78,3.675,3.78,5.82a.956.956,0,0,1-1.08.99c-.6,0-1.035-.54-1.11-1.635l-1.77.255a2.854,2.854,0,0,0,2.79,3,2.653,2.653,0,0,0,2.94-2.775c0-2.94-3.78-3.825-3.78-5.67,0-.675.33-1.065.93-1.065.42,0,.915.27.99,1.2ZM34.342,0V-10.83h-1.86V0Zm4.215-4.86h.6c1.11,0,1.53.555,1.53,1.665s-.36,1.665-1.35,1.665h-.78Zm0-4.44h.705c.825,0,1.215.525,1.215,1.53a1.229,1.229,0,0,1-1.245,1.38h-.675ZM36.7,0h2.94c2.115,0,2.91-1.35,2.91-3.135a2.48,2.48,0,0,0-1.5-2.565,2.327,2.327,0,0,0,1.29-2.265c0-1.845-.885-2.865-2.88-2.865H36.7Zm9.915,0V-10.83h-1.86V0Zm7.05,0V-1.62H50.737v-9.21h-1.86V0Zm3.555,0V-10.83h-1.86V0Zm3.435,0h1.86V-9.21h1.8v-1.62h-5.46v1.62h1.8Zm7.17,0V-10.83h-1.86V0Zm7.545,0V-1.62h-3.33V-4.8h2.4V-6.42h-2.4V-9.21h3.12v-1.62h-4.98V0ZM82.3-8.355a2.6,2.6,0,0,0-2.58-2.625c-1.83,0-2.88.975-2.88,2.7,0,3.1,3.78,3.675,3.78,5.82a.956.956,0,0,1-1.08.99c-.6,0-1.035-.54-1.11-1.635l-1.77.255a2.854,2.854,0,0,0,2.79,3,2.653,2.653,0,0,0,2.94-2.775c0-2.94-3.78-3.825-3.78-5.67,0-.675.33-1.065.93-1.065.42,0,.915.27.99,1.2Z" transform="translate(150 71)" fill="#87dfff"/>
  </g>
</svg>
