<?xml version="1.0" encoding="utf-8"?>
<!-- Generator: Adobe Illustrator 25.2.0, SVG Export Plug-In . SVG Version: 6.00 Build 0)  -->
<svg version="1.1" id="Layer_1" xmlns="http://www.w3.org/2000/svg" xmlns:xlink="http://www.w3.org/1999/xlink" x="0px" y="0px"
	 viewBox="0 0 1920 1080" style="enable-background:new 0 0 1920 1080;" xml:space="preserve">
<style type="text/css">
	.st0{fill:#005596;}
	.st1{fill:#7E8083;}
</style>
<g>
	<path class="st0" d="M203.8,391v-25.2c0,0,5.2-38.6-59.3-38.6c-66,0-62.2,38.6-62.2,38.6v126.8c0,0-3.7,36.4,62.2,36.4
		c56.3,0,59.3-16.3,59.3-16.3v-56.4h-59.3v-34.1h126v90.4c0,0-25.2,50.4-126,50.4c-118.6,0-129-70.4-129-70.4V365.8
		c0,0,5.9-71.2,129-71.2c132.7,0,126,71.2,126,71.2V391H203.8z M1473.7,425.1c0,0,4.5-50.8-97.8-50.8c-101.6,0-97.5,50.5-97.5,50.5
		v87.9c0,0-4.5,50.4,97.5,50.4c101.9,0,97.8-50.4,97.8-50.4v-14.1H1420l0,14.2c0,0,0,21.8-44.2,21.8c-43.7,0-43.6-21.7-43.9-21.7
		c-0.3,0,0.1-31.7,0.1-31.7h141.5V425.1z M1375.9,403.6c44.3,0,44.3,22.3,44.3,22.3c0-0.1-0.1,19.6-0.1,19.6h-87.9l-0.1-19.6
		C1332.1,425.9,1332.2,403.6,1375.9,403.6z M1688,448.7v-23.6c0,0,4.4-50.8-97.9-50.8c-101.6,0-97.5,50.5-97.5,50.5v87.9
		c0,0-4.4,50.4,97.5,50.4c101.9,0,97.9-50.4,97.9-50.4v-21.9h-53.8l0.1,21.9c0,0-0.1,21.8-44.2,21.8c-43.8,0-43.6-21.9-43.9-21.9
		c-0.2,0,0.1-86.7,0.1-86.7c0.2,0,0.8-22.3,46-22.3c42.6,0,41.9,21.9,41.9,21.9v23.1L1688,448.7z M1137.9,409.7h17.1
		c0,0,0,58.6,0,105.3c0,46.7,63.6,51.5,110,45.5c0.4,0,0.1-26.2,0.1-26.2c-53.4,7.4-56.3-19.3-56.3-19.3V409.7h58.9v-28.9h-58.9
		v-41.1H1155v41.1h-17.1V409.7z M912.2,425.1c0,0,4.5-50.8-97.9-50.8c-101.5,0-97.5,50.5-97.5,50.5v87.9c0,0-4.5,50.4,97.5,50.4
		s97.9-50.4,97.9-50.4v-14.1h-53.7l0.1,14.2c0,0-0.1,21.8-44.2,21.8c-43.7,0-43.6-21.7-43.9-21.7c-0.2,0,0.1-31.7,0.1-31.7h141.6
		V425.1z M814.4,403.6c44.4,0,44.3,22.3,44.3,22.3c0-0.1-0.2,19.6-0.2,19.6h-87.9l-0.1-19.6C770.6,425.9,770.6,403.6,814.4,403.6z
		 M485.2,425.1c0,0,4.4-50.8-97.9-50.8c-101.5,0-97.5,50.5-97.5,50.5v87.9c0,0-4.5,50.4,97.5,50.4s97.9-50.4,97.9-50.4v-14.1h-53.8
		l0.1,14.2c0,0-0.1,21.8-44.2,21.8c-43.7,0-43.6-21.7-43.8-21.7c-0.3,0,0.1-31.7,0.1-31.7h141.6V425.1z M387.3,403.6
		c44.4,0,44.3,22.3,44.3,22.3c0-0.1-0.2,19.6-0.2,19.6h-87.9l-0.1-19.6C343.5,425.9,343.6,403.6,387.3,403.6z M1709.1,555.2h53.8
		V422.5c0,0,0-21.9,43.8-21.9c44.1,0,44.1,21.5,44.1,21.5v133.1h53.8V416.6c0,0-2.2-45.2-97.9-45.2c-17.7,0-31.9,1.5-43.8,4
		c-0.3,0,0-78.9,0-78.6c0,0.5-53.8,0.1-53.8,0.1V555.2z M600.8,371.4c-32.7,0-54.4,5.3-68.9,12.2l-28.6,0.2v171.4h53.7V422.5
		c0,0,0-21.9,43.8-21.9c44.1,0,44.1,21.5,44.1,21.5v133.1h53.8V416.6C698.7,416.6,696.5,371.4,600.8,371.4z M1027.8,371.4
		c-32.7,0-54.4,5.3-68.9,12.2l-28.6,0.2v171.4h53.7V422.5c0,0,0-21.9,43.8-21.9c44.1,0,44.1,21.5,44.1,21.5v133.1h53.8V416.6
		C1125.7,416.6,1123.5,371.4,1027.8,371.4z"/>
	<path class="st1" d="M98,649.5l4.6,27.1c3.2,18.3,6,36.7,9,54.5c1.9,11.9,4.1,12.8,13.1,13.7L124,749H85.7l0.9-4.2l5.1-0.8
		c5-0.6,6-2.1,5-8.3L93,714.4H64.8c-2.4,4.2-6.6,12.9-9.9,19.5c-3.9,7.8-3.5,9.5,2.3,10.2l5.1,0.6l-0.9,4.2H27.8l0.9-4.2
		c8.9-1.1,11.3-2.3,18.8-15.3l44.3-78.1L98,649.5z M68,707.5h24.2l-5.7-34.1h-0.3L68,707.5z M220.3,651.3l19.1,72.4l44.8-72.4h28.1
		l-0.9,4.2c-11.9,1.1-13.1,1.8-15.6,18.2l-8.3,52.9c-2.6,16.4-2.1,17.1,10.1,18.2l-0.9,4.2h-41.2l0.8-4.2
		c11.4-1.1,12.5-1.8,15.3-18.2l10.1-58.2h-0.6L233,747.3h-4.5l-18.3-76h-0.3l-8.7,38.6c-3.1,14.3-4.5,22.5-5,27.2
		c-0.6,5.4,2.4,6.9,12.3,7.7l-0.8,4.2H172l0.8-4.4c7.7-0.3,11.3-2.1,13.4-7.5c1.6-4.6,4.4-13.4,8-27.9l8.3-33.1
		c4.5-18,3-19.5-9.6-20.6l0.9-4.2H220.3z M361.3,733.5c-14.9,15-27.9,17.3-34.4,17.3c-7.1,0-17.3-4.3-17.3-21.9
		c0-13.8,6.8-29.6,17.7-37.5c6.5-4.7,15.5-9.3,23.9-9.3c9.3,0,14.6,5.3,14.6,12c0,13.8-25.7,23.3-40,27.8c-0.1,0.9-0.3,2.3-0.3,3
		c0,7,2.1,15.9,11,15.9c5.9,0,13.7-3,22.2-10.8L361.3,733.5z M339.7,690.3c-4.2,2.4-10.7,9.5-13.2,26.4c18-6.1,24.5-12.6,24.5-21
		c0-5.6-4-7.1-6.3-7.1C343,688.6,341.2,689.3,339.7,690.3z M374.7,697.3c8.7-8.3,19.5-15.4,24.9-15.4c4.8,0,4.8,5.3,3,13.7l-2.4,11
		h0.3c10.2-12.3,20.4-19.4,26.9-22.4c3.2-1.5,5.7-2.3,8.1-2.3c2.9,0,8.3,1.8,4.7,17.1l-1.8,7.4l0.4,0.1
		c10.4-12.5,20.7-19.4,26.9-22.4c3.1-1.5,5.7-2.3,8-2.3c3.3,0,9.2,1.8,5.4,18.9c-1.8,7.8-5.3,20.4-8,32.9c-0.9,3.9-1.3,5.3-0.1,5.3
		c1.2,0,6.6-3.1,10.7-6.3l1.9,3.8c-8.4,7.8-21.3,14.2-24.3,14.2c-4.5,0-6.5-3.5-4.2-12.5l8.6-35.2c1.5-6.5,2.1-10.1-1.5-10.1
		c-5.3,0-20,14.7-25.9,25.2c-1.4,4.8-5,20-6,28.4l-16.1,4c2-8.2,3.8-16.5,5.7-24.8l5.7-24.8c0.9-4.1,1.3-8.1-1.8-8.1
		c-5.3,0-20.1,14.7-26.1,25.2c-1.2,4.2-4.7,20-5.7,28.4l-16.2,4c2.3-8.2,4.1-16.4,5.9-24.6l5.4-24.6c1.2-5.4,1.7-7.5,0.4-7.5
		c-1.5,0-7.2,3.6-10.8,7.1L374.7,697.3z M500.9,648.6c12.3-2.6,25.8-6.3,27.2-6.3c1.8,0,2.1,2.6,1.1,7.1l-11.6,52.3h0.3
		C530.6,688,543.2,682,550,682c6,0,10.1,5.1,10.1,13.9c0,17.9-9.5,37.8-22.5,46.9c-9,6.1-17.6,8.1-23.7,8.1
		c-7.8,0-14.6-2.7-16.5-8.4c-1.1-3.3-0.8-6.3,1.2-15.8l13.7-67.6c1.2-6,1-6.8-4.2-6.8h-7.1V648.6z M521.2,705.1
		c-5.6,6.5-6.2,8.9-8.3,21.8c-2.1,13.5,1.3,17.1,7.4,17.1c3.2,0,5.3-0.8,7.4-2c7.4-4.2,16.2-23.4,16.2-40.1c0-7.4-1.9-9.9-5-9.9
		C534.7,692.1,526.4,698.8,521.2,705.1z M622.3,733.5c-14.9,15-27.9,17.3-34.4,17.3c-7.1,0-17.3-4.3-17.3-21.9
		c0-13.8,6.8-29.6,17.7-37.5c6.5-4.7,15.5-9.3,23.9-9.3c9.3,0,14.6,5.3,14.6,12c0,13.8-25.7,23.3-40,27.8c-0.2,0.9-0.3,2.3-0.3,3
		c0,7,2.1,15.9,11,15.9c5.9,0,13.7-3,22.2-10.8L622.3,733.5z M600.6,690.3c-4.2,2.4-10.7,9.5-13.2,26.4c18-6.1,24.5-12.6,24.5-21
		c0-5.6-4-7.1-6.3-7.1C603.9,688.6,602.1,689.3,600.6,690.3z M634.6,697.3c8.7-8.3,19.1-15.4,24.2-15.4c3.9,0,4,5.3,2.9,10.5
		l-2.7,11.4h0.4c7.2-12.9,15.8-21.9,20.1-21.9c3.3,0,6.6,1.5,8.1,4.1c1.2,2,0.8,5-0.4,6.9c-1.7,2.7-3,3.9-4.5,5
		c-1.5,1.1-3,1.2-4.5-0.1c-1.5-1.2-3.5-1.8-4.8-1.8c-1.5,0-3.8,0.4-7.1,5c-3.6,4.7-6.2,9.6-8.1,15.8c-3,14.3-5,24.6-5.3,29.8h-0.2
		l-16.1,4.3c1.8-8.1,3.6-16.1,5.3-24.3l5-24.2c1.2-6.2,1.4-8.3,0.3-8.3c-1.4,0-7.2,3.9-10.7,7.1L634.6,697.3z M781.6,703.6
		c0,13.4-5.9,28.1-15.9,37c-6.5,5.9-16.7,10.2-24.2,10.2c-16.1,0-21.2-12.5-21.2-23.4c0-20.1,10.8-33.5,21.5-39.8
		c6.6-3.9,13.8-5.6,18.8-5.6C773.9,682,781.6,691.1,781.6,703.6z M750.9,689.3c-4.7,2-14.4,13.4-14.4,36.1
		c0,11.6,3.9,18.9,10.8,18.9c1.5,0,2.6-0.3,3.6-0.6c5.7-1.9,14.7-18.9,14.4-38.8c0-11.1-3.9-16.5-9.9-16.5
		C753.7,688.4,752.2,688.8,750.9,689.3z M839.6,685.6l-3.5,4.7l-15.2,1.5c-2.1,13.2-3.6,22.5-5.7,33.2
		c-5.6,29.1-12.8,43.7-19.2,50.6c-6.9,7.4-14.1,9.8-17.4,9.8c-2.7,0-6.5-1.4-6.5-4.8c0-2.5,1.5-5.4,2.9-6.6c1.1-1.1,2.7-1.8,4.5-1.1
		c1.9,0.9,5.3,2.7,7.1,2.7c1.4,0,2.6-0.6,3.8-1.8c2.3-2.3,5-12.2,8.9-38.6c2.7-18.6,4.4-30.3,6.3-43.4h-11.9l-0.5-1.5l4.4-4.7h9.2
		c2.1-12.5,6-23.2,12.5-30.5c6.2-6.9,15.6-12.8,25.2-12.8c5.7,0,9.8,3,9.8,6.6c0,3.2-2.4,5.7-3.8,6.9c-1.5,1.3-3.9,1.5-5.4,0
		c-3.6-3.4-7.4-5.4-11-5.4c-4.2,0-7.5,6.3-12,35.2H839.6z M916.9,665.6l-5,20h18.5l-4.8,5.4l-15,0.8L902,731
		c-1.2,5.7-0.6,8.3,0.9,8.3c2.7,0,9.8-5.9,13.5-9.5l0.3,0.3l2.3,2.9c-4.8,6-19.2,17.9-26.7,17.9c-4.6,0-8-5.3-5-19.2l8.6-39.8h-11.4
		l-1.2-1.9l4.5-4.2h9.5l2.7-11.1l15-10.4L916.9,665.6z M929.8,750.8c1.5-7.7,3.1-15,4.6-22.7l13.7-69.1c1.2-6,1-6.8-4.1-6.8h-7.2
		v-3.6c12.3-2.6,26.2-6.3,27.3-6.3c1.8,0,2.1,2.6,1.2,7.1l-12,56.7h0.3c10.4-11.7,20.4-18.8,26.9-21.8c3-1.5,6-2.3,8.3-2.3
		c3.5,0,8.9,1.8,5.9,15.6c-2.4,11.1-5.3,23.7-8,36.2c-0.9,3.9-1.2,5.3,0.1,5.3c1.2,0,6.6-3.1,10.5-6.3l1.9,3.8
		c-8.1,7.8-21.2,14.2-24.6,14.2c-4.1,0-6-3.5-3.9-12.5l8.1-35.2c1.5-6.5,1.8-10.1-1.7-10.1c-5.6,0-19.8,14.1-25.8,24.5
		c-0.9,4.2-4.6,20.7-5.6,29.2L929.8,750.8z M1061.5,733.5c-14.9,15-27.9,17.3-34.4,17.3c-7.1,0-17.3-4.3-17.3-21.9
		c0-13.8,6.8-29.6,17.7-37.5c6.5-4.7,15.5-9.3,23.9-9.3c9.3,0,14.6,5.3,14.6,12c0,13.8-25.7,23.3-40,27.8c-0.1,0.9-0.3,2.3-0.3,3
		c0,7,2.1,15.9,11,15.9c5.9,0,13.7-3,22.2-10.8L1061.5,733.5z M1039.9,690.3c-4.2,2.4-10.7,9.5-13.2,26.4c18-6.1,24.5-12.6,24.5-21
		c0-5.6-4-7.1-6.3-7.1C1043.2,688.6,1041.4,689.3,1039.9,690.3z M1161.2,651.3c15.9,0,32.5,4.1,32.5,23.9c0,13.9-12,23.3-25.4,27.2
		c1.5,3.8,5.7,13.8,9.2,20.4c4.2,8.3,7.3,13.5,9.6,16.7c2.9,4,5.7,6.1,10.4,7.2l-1.1,3.6l-4.8-0.1c-16.5-0.4-20.6-5.4-25.2-14.1
		c-4-7.8-7.8-16.8-10.7-23.9c-1.8-4.5-3-5.7-7.7-5.7h-5.9l-3.9,20.1c-3.2,16.2-2.1,17.3,9.8,18.2l-0.8,4.2h-41.5l0.9-4.2
		c11.6-0.9,12.9-2,16.1-18.2l10.1-52.9c3.2-16.2,2.1-17.3-9.5-18.2l0.8-4.2H1161.2z M1143,701.4h5.9c5.7,0,10.4-1,15.2-4
		c8.1-5,12.8-13.7,12.8-23.2c0-11.2-6.5-17.1-17.1-17.1c-3.9,0-5.9,0.3-7.1,0.8c-1.2,0.4-1.5,1.8-2.1,4.4L1143,701.4z M1268.4,703.6
		c0,13.4-5.9,28.1-15.9,37c-6.5,5.9-16.7,10.2-24.2,10.2c-16.1,0-21.2-12.5-21.2-23.4c0-20.1,10.8-33.5,21.5-39.8
		c6.6-3.9,13.8-5.6,18.8-5.6C1260.8,682,1268.4,691.1,1268.4,703.6z M1237.8,689.3c-4.6,2-14.4,13.4-14.4,36.1
		c0,11.6,3.9,18.9,10.8,18.9c1.5,0,2.5-0.3,3.6-0.6c5.7-1.9,14.7-18.9,14.4-38.8c0-11.1-3.9-16.5-9.9-16.5
		C1240.6,688.4,1239.1,688.8,1237.8,689.3z M1327.1,735c-9.9,10.4-23.4,15.7-30.6,15.7c-11.4,0-17.7-7.8-17.7-21.5
		c0.1-12,5.4-27.2,16.1-36.5c6.3-5.6,16.4-10.8,25.8-10.8c6.5,0,12.5,3.6,12.5,7.8c0,2.3-1.6,4.5-4.2,6.6c-2.6,2.1-5.4,1.5-6.6-0.1
		c-3.7-5.1-7.2-6.8-10.4-6.8c-3.2,0-6.8,2.4-9.9,8.1c-4.2,7.2-7.1,18.7-7.1,28.1c-0.2,9.5,3.1,15,9.8,15c8.6,0,15.9-6.2,19.8-9.2
		L1327.1,735z M1337.5,750.8c1.5-7.7,3.2-15,4.7-22.7l13.7-69.1c1.2-6,1-6.8-4.1-6.8h-7.2v-3.6c12.3-2.6,26.1-6.3,27.3-6.3
		c1.8,0,2.1,2.6,1.2,7.1l-12,56.7h0.3c10.4-11.7,20.4-18.8,26.9-21.8c3-1.5,6-2.3,8.3-2.3c3.5,0,8.8,1.8,5.8,15.6
		c-2.4,11.1-5.3,23.7-8,36.2c-0.9,3.9-1.2,5.3,0.2,5.3c1.2,0,6.6-3.1,10.5-6.3l1.9,3.8c-8.1,7.8-21.2,14.2-24.6,14.2
		c-4,0-6-3.5-3.9-12.5l8.1-35.2c1.5-6.5,1.8-10.1-1.7-10.1c-5.6,0-19.8,14.1-25.8,24.5c-0.9,4.2-4.7,20.7-5.5,29.2L1337.5,750.8z
		 M1469.3,733.5c-14.9,15-27.9,17.3-34.4,17.3c-7.1,0-17.3-4.3-17.3-21.9c0-13.8,6.8-29.6,17.7-37.5c6.5-4.7,15.5-9.3,23.9-9.3
		c9.3,0,14.6,5.3,14.6,12c0,13.8-25.7,23.3-40,27.8c-0.2,0.9-0.3,2.3-0.3,3c0,7,2.1,15.9,11,15.9c5.8,0,13.7-3,22.2-10.8
		L1469.3,733.5z M1447.6,690.3c-4.2,2.4-10.7,9.5-13.2,26.4c18-6.1,24.5-12.6,24.5-21c0-5.6-4.1-7.1-6.3-7.1
		C1450.9,688.6,1449.1,689.3,1447.6,690.3z M1607.8,677.5c-0.8-18.5-11.7-22.4-24-22.4c-26.9,0-43.9,24.5-43.9,52.7
		c0,22.2,10.1,37.4,30.8,37.4c6.3,0,12.9-1.7,14.1-8.4l3-15.9c1.9-10.5,1.3-10.7-14.7-11.7l0.8-4.8h41.5l-0.8,4.8
		c-7.5,0.6-8.7,0.9-10.8,11.7l-2.7,13.7c-0.8,3.9-1.1,8-0.9,10.7c-9.3,2.5-20.6,6-32.5,6c-27.2,0-46-15-46-43.1
		c0-35.2,29.6-59,65.8-59c11.9,0,21.9,2.6,26.7,3.9c-0.5,5.1-1.2,12.9-1.8,24L1607.8,677.5z M1620.9,697.3
		c8.7-8.3,19.1-15.4,24.2-15.4c3.9,0,4.1,5.3,2.9,10.5l-2.7,11.4h0.4c7.2-12.9,15.8-21.9,20.1-21.9c3.3,0,6.6,1.5,8.1,4.1
		c1.2,2,0.8,5-0.5,6.9c-1.7,2.7-3,3.9-4.5,5c-1.5,1.1-3,1.2-4.5-0.1c-1.5-1.2-3.5-1.8-4.8-1.8c-1.5,0-3.8,0.4-7.1,5
		c-3.6,4.7-6.1,9.6-8.1,15.8c-3,14.3-5,24.6-5.3,29.8h-0.2l-16.1,4.3c1.8-8.1,3.6-16.1,5.2-24.3l5-24.2c1.2-6.2,1.3-8.3,0.3-8.3
		c-1.4,0-7.2,3.9-10.7,7.1L1620.9,697.3z M1737.6,703.6c0,13.4-5.9,28.1-15.9,37c-6.5,5.9-16.7,10.2-24.2,10.2
		c-16.1,0-21.2-12.5-21.2-23.4c0-20.1,10.8-33.5,21.5-39.8c6.6-3.9,13.8-5.6,18.8-5.6C1730,682,1737.6,691.1,1737.6,703.6z
		 M1707,689.3c-4.6,2-14.4,13.4-14.4,36.1c0,11.6,3.9,18.9,10.8,18.9c1.5,0,2.5-0.3,3.6-0.6c5.7-1.9,14.7-18.9,14.4-38.8
		c0-11.1-3.9-16.5-9.9-16.5C1709.8,688.4,1708.3,688.8,1707,689.3z M1749.4,697.3c8.8-8.3,20.1-15.4,25.7-15.4
		c3.6,0,5.1,3.8,3.5,11.3l-7.8,34.7c-1.3,7.3-1.6,11.6,1.5,11.6c2.7,0,7.8-4.7,13.1-10.8c5.3-6,10.7-13.4,13.4-18.8
		c0.9-3.3,3.8-15.6,5.1-23.9l13.8-4.1h1.8c-3.8,17.3-7.5,34.6-11,51.8c-0.7,3.9-1,5.3,0,5.3c1.2,0,6.6-3.1,10.5-6.3l2.1,3.8
		c-8.3,7.8-21.4,14.2-24,14.2c-4.6,0-5.9-4.6-4.1-12.9l3.3-15h-0.4c-7.5,11.3-17.1,20-23.7,24c-3.6,2.3-7.7,3.9-11.3,3.9
		c-3.1,0-9.3-2.1-5.6-19.1l6.6-30.2c1.2-5.4,1.6-7.4,0.3-7.4c-1.4,0-7.1,3.4-10.8,6.9L1749.4,697.3z M1861.8,684.1
		c4.3-1.4,9.3-2.1,12.9-2.1c16.8,0,23.9,8,23.9,20.3c0,9.5-4.4,21.2-13.5,31.4c-7.4,8.1-17.9,14.7-28.8,17.1c-2.4,0-5-0.3-7.8-1.3
		l-3.7,19.7c-1.3,7.2-1.1,8.9,4,9.3l7.7,0.8v3.9l-39.2,1.8v-4.1c9.8-1.5,11.1-2.7,12.5-9.8l15.6-77.4c-4.2,0.9-8.1,2.1-12.2,3.6
		l-0.9-4.2c5.3-2.8,10.1-4.2,14.7-6l1.5-6.2c3.8-3.6,9.5-7.5,14.4-9.8l1.7,1.1L1861.8,684.1z M1850.5,740c1.4,1.9,4.1,3.9,8.3,3.9
		c9.9,0,23.1-18.8,23.1-38.5c0-12.3-7.3-15.8-13.7-15.8c-2.7,0-5,0.3-7.8,1.1L1850.5,740z"/>
</g>
</svg>
