<svg xmlns="http://www.w3.org/2000/svg" width="454.4" height="9.96" viewBox="0 0 454.4 9.96">
  <g id="Group_17" data-name="Group 17" transform="translate(-13 -74)">
    <path id="Path_70" data-name="Path 70" d="M-228.6-7.08h1.56v2.64h3.03V-7.08h1.56V0h-1.56V-3.06h-3.03V0h-1.56Zm7.65,0h4.81v1.44h-3.25v1.32h3.07v1.44h-3.07v1.44h3.43V0h-4.99Zm6.24,0h2.36l1.63,4.62h.02l1.64-4.62h2.35V0h-1.56V-5.43h-.02L-210.15,0h-1.19l-1.79-5.43h-.02V0h-1.56Zm9.5,0h1.56v5.64h2.89V0h-4.45Zm5.29,0h1.56V0h-1.56Zm2.98,0h2.64a6.674,6.674,0,0,1,.925.065,2.527,2.527,0,0,1,.835.26,1.6,1.6,0,0,1,.6.545,1.67,1.67,0,0,1,.23.93,1.485,1.485,0,0,1-.335.995,1.842,1.842,0,0,1-.885.565v.02a2.02,2.02,0,0,1,.635.2,1.7,1.7,0,0,1,.49.37,1.576,1.576,0,0,1,.315.525,1.844,1.844,0,0,1,.11.64,1.7,1.7,0,0,1-.24.935,1.887,1.887,0,0,1-.62.6,2.719,2.719,0,0,1-.855.33,4.577,4.577,0,0,1-.945.1h-2.9Zm1.56,2.83h1.13a1.588,1.588,0,0,0,.355-.04.982.982,0,0,0,.315-.13.677.677,0,0,0,.225-.24.719.719,0,0,0,.085-.36.653.653,0,0,0-.1-.365.661.661,0,0,0-.245-.225,1.168,1.168,0,0,0-.34-.115,2.041,2.041,0,0,0-.37-.035h-1.06Zm0,2.93h1.4a1.724,1.724,0,0,0,.365-.04.966.966,0,0,0,.335-.14.8.8,0,0,0,.245-.26.751.751,0,0,0,.1-.39.625.625,0,0,0-.125-.4.792.792,0,0,0-.315-.235,1.613,1.613,0,0,0-.41-.11,3.046,3.046,0,0,0-.41-.03h-1.18Zm4.92-5.76h2.74a4.835,4.835,0,0,1,1.025.105,2.432,2.432,0,0,1,.85.35,1.744,1.744,0,0,1,.58.66,2.235,2.235,0,0,1,.215,1.035,2.078,2.078,0,0,1-.39,1.275,1.756,1.756,0,0,1-1.14.665l1.8,2.99h-1.87l-1.48-2.83h-.77V0h-1.56Zm1.56,2.93h.92q.21,0,.445-.015a1.394,1.394,0,0,0,.425-.09.735.735,0,0,0,.315-.235.716.716,0,0,0,.125-.45.747.747,0,0,0-.11-.43.733.733,0,0,0-.28-.245,1.242,1.242,0,0,0-.39-.115,3.181,3.181,0,0,0-.43-.03h-1.02Zm7.25-2.93h1.29L-177.28,0h-1.76l-.61-1.5h-2.75l-.59,1.5h-1.72Zm.6,2.06-.86,2.2h1.73Zm7.27.16h1.5V0h-1.5Zm-.12-1.53a.838.838,0,0,1,.255-.615.838.838,0,0,1,.615-.255.838.838,0,0,1,.615.255.838.838,0,0,1,.255.615.838.838,0,0,1-.255.615.838.838,0,0,1-.615.255.838.838,0,0,1-.615-.255A.838.838,0,0,1-173.9-6.39Zm5.45,2.96a1.062,1.062,0,0,0-.87-.41.818.818,0,0,0-.37.09.318.318,0,0,0-.18.31.279.279,0,0,0,.185.265,2.447,2.447,0,0,0,.47.15l.61.14a2.292,2.292,0,0,1,.61.235,1.365,1.365,0,0,1,.47.435,1.3,1.3,0,0,1,.185.735,1.361,1.361,0,0,1-.205.775,1.572,1.572,0,0,1-.525.49,2.258,2.258,0,0,1-.72.26,4.28,4.28,0,0,1-.79.075,3.821,3.821,0,0,1-1.03-.145,1.924,1.924,0,0,1-.88-.515l.91-1.01a1.51,1.51,0,0,0,.465.395,1.254,1.254,0,0,0,.6.135,1.39,1.39,0,0,0,.47-.075.277.277,0,0,0,.21-.275.3.3,0,0,0-.185-.285,2.026,2.026,0,0,0-.47-.16l-.61-.14a2.52,2.52,0,0,1-.61-.225,1.276,1.276,0,0,1-.47-.425,1.3,1.3,0,0,1-.185-.735,1.482,1.482,0,0,1,.175-.74,1.538,1.538,0,0,1,.46-.51,1.99,1.99,0,0,1,.655-.3,3,3,0,0,1,.75-.095,3.518,3.518,0,0,1,.97.14,1.8,1.8,0,0,1,.83.5Zm7.89,2.82h-.02a1.411,1.411,0,0,1-.665.56,2.286,2.286,0,0,1-.875.17,2.256,2.256,0,0,1-.655-.1,1.653,1.653,0,0,1-.555-.285,1.376,1.376,0,0,1-.38-.47,1.435,1.435,0,0,1-.14-.65,1.49,1.49,0,0,1,.155-.71,1.387,1.387,0,0,1,.42-.48,2.086,2.086,0,0,1,.6-.3,4.417,4.417,0,0,1,.705-.155,6.734,6.734,0,0,1,.73-.06q.365-.01.675-.01a.78.78,0,0,0-.285-.635,1.028,1.028,0,0,0-.675-.235,1.468,1.468,0,0,0-.675.155,1.844,1.844,0,0,0-.545.425l-.8-.82a2.753,2.753,0,0,1,.98-.585,3.5,3.5,0,0,1,1.16-.2,3.033,3.033,0,0,1,1.085.165,1.578,1.578,0,0,1,.68.485,1.869,1.869,0,0,1,.355.785,5.152,5.152,0,0,1,.1,1.075V0h-1.38Zm-.37-1.52q-.17,0-.425.015a2.154,2.154,0,0,0-.49.085,1.09,1.09,0,0,0-.4.21.484.484,0,0,0-.165.39.429.429,0,0,0,.23.4.962.962,0,0,0,.48.13,1.505,1.505,0,0,0,.425-.06,1.267,1.267,0,0,0,.365-.17.822.822,0,0,0,.255-.28.807.807,0,0,0,.1-.4v-.32ZM-41.42-3.66h-1.32v1.62a3.049,3.049,0,0,0,.02.365.736.736,0,0,0,.09.285.455.455,0,0,0,.215.185.953.953,0,0,0,.385.065,2.593,2.593,0,0,0,.315-.025.534.534,0,0,0,.3-.115V-.03a2.27,2.27,0,0,1-.52.12,4.8,4.8,0,0,1-.53.03,2.883,2.883,0,0,1-.7-.08,1.6,1.6,0,0,1-.56-.255A1.194,1.194,0,0,1-44.1-.67a1.556,1.556,0,0,1-.135-.68V-3.66h-.96v-1.2h.96V-6.3h1.5v1.44h1.32Zm2.26-3.9V-4.2h.02a.9.9,0,0,1,.17-.28,1.33,1.33,0,0,1,.29-.25,1.579,1.579,0,0,1,.4-.18,1.71,1.71,0,0,1,.5-.07,2.066,2.066,0,0,1,.92.175,1.33,1.33,0,0,1,.545.485,1.962,1.962,0,0,1,.265.73,5.544,5.544,0,0,1,.07.91V0h-1.5V-2.38q0-.21-.015-.435a1.372,1.372,0,0,0-.09-.415.716.716,0,0,0-.23-.31.715.715,0,0,0-.445-.12.926.926,0,0,0-.47.1.716.716,0,0,0-.275.28,1.145,1.145,0,0,0-.125.395,3.4,3.4,0,0,0-.03.46V0h-1.5V-7.56Zm7.29,6.95h-.02a1.411,1.411,0,0,1-.665.56,2.286,2.286,0,0,1-.875.17,2.256,2.256,0,0,1-.655-.1A1.653,1.653,0,0,1-34.64-.26a1.376,1.376,0,0,1-.38-.47,1.435,1.435,0,0,1-.14-.65A1.49,1.49,0,0,1-35-2.09a1.387,1.387,0,0,1,.42-.48,2.086,2.086,0,0,1,.6-.3,4.416,4.416,0,0,1,.7-.155,6.734,6.734,0,0,1,.73-.06q.365-.01.675-.01a.78.78,0,0,0-.285-.635,1.028,1.028,0,0,0-.675-.235A1.468,1.468,0,0,0-33.5-3.8a1.844,1.844,0,0,0-.545.425l-.8-.82a2.753,2.753,0,0,1,.98-.585,3.5,3.5,0,0,1,1.16-.2,3.033,3.033,0,0,1,1.085.165,1.578,1.578,0,0,1,.68.485,1.869,1.869,0,0,1,.355.785,5.152,5.152,0,0,1,.1,1.075V0h-1.38Zm-.37-1.52q-.17,0-.425.015a2.154,2.154,0,0,0-.49.085,1.09,1.09,0,0,0-.4.21.484.484,0,0,0-.165.39.429.429,0,0,0,.23.4.962.962,0,0,0,.48.13,1.505,1.505,0,0,0,.425-.06,1.268,1.268,0,0,0,.365-.17.822.822,0,0,0,.255-.28.807.807,0,0,0,.095-.4v-.32Zm6-1.53h-1.32v1.62a3.049,3.049,0,0,0,.02.365.736.736,0,0,0,.09.285.455.455,0,0,0,.215.185.953.953,0,0,0,.385.065,2.593,2.593,0,0,0,.315-.025.534.534,0,0,0,.3-.115V-.03a2.27,2.27,0,0,1-.52.12,4.8,4.8,0,0,1-.53.03,2.883,2.883,0,0,1-.7-.08,1.6,1.6,0,0,1-.56-.255,1.194,1.194,0,0,1-.375-.455,1.556,1.556,0,0,1-.135-.68V-3.66h-.96v-1.2h.96V-6.3h1.5v1.44h1.32Zm3.54,1.23a2.546,2.546,0,0,1,.21-1.05,2.417,2.417,0,0,1,.575-.8,2.539,2.539,0,0,1,.86-.515A3.063,3.063,0,0,1-20-4.98a3.063,3.063,0,0,1,1.055.18,2.539,2.539,0,0,1,.86.515,2.417,2.417,0,0,1,.575.8,2.546,2.546,0,0,1,.21,1.05,2.546,2.546,0,0,1-.21,1.05,2.417,2.417,0,0,1-.575.805,2.539,2.539,0,0,1-.86.515A3.063,3.063,0,0,1-20,.12a3.063,3.063,0,0,1-1.055-.18,2.539,2.539,0,0,1-.86-.515,2.417,2.417,0,0,1-.575-.805A2.546,2.546,0,0,1-22.7-2.43Zm1.5,0a1.257,1.257,0,0,0,.315.89A1.147,1.147,0,0,0-20-1.2a1.147,1.147,0,0,0,.885-.34,1.257,1.257,0,0,0,.315-.89,1.257,1.257,0,0,0-.315-.89A1.147,1.147,0,0,0-20-3.66a1.147,1.147,0,0,0-.885.34A1.257,1.257,0,0,0-21.2-2.43Zm4.78-2.43h1.44v.66h.02a1.216,1.216,0,0,1,.2-.28,1.455,1.455,0,0,1,.31-.25,1.772,1.772,0,0,1,.41-.18,1.71,1.71,0,0,1,.5-.07,2.066,2.066,0,0,1,.92.175,1.33,1.33,0,0,1,.545.485,1.962,1.962,0,0,1,.265.73,5.544,5.544,0,0,1,.07.91V0h-1.5V-2.38q0-.21-.015-.435a1.372,1.372,0,0,0-.09-.415.716.716,0,0,0-.23-.31.715.715,0,0,0-.445-.12.926.926,0,0,0-.47.1.716.716,0,0,0-.275.28,1.145,1.145,0,0,0-.125.395,3.4,3.4,0,0,0-.03.46V0h-1.5Zm5.76-2.7h1.5V0h-1.5ZM-5.28.79q-.15.39-.29.69a1.656,1.656,0,0,1-.355.505,1.383,1.383,0,0,1-.545.31,2.947,2.947,0,0,1-.87.1,3.518,3.518,0,0,1-1.12-.18l.2-1.23a1.717,1.717,0,0,0,.7.15,1.283,1.283,0,0,0,.41-.055.681.681,0,0,0,.265-.16A.887.887,0,0,0-6.71.67q.07-.15.15-.35l.11-.28-2.13-4.9h1.62l1.25,3.21h.02l1.07-3.21h1.54ZM3.75-3.66H2.43v1.62a3.049,3.049,0,0,0,.02.365.736.736,0,0,0,.09.285.455.455,0,0,0,.215.185.953.953,0,0,0,.385.065,2.593,2.593,0,0,0,.315-.025.534.534,0,0,0,.3-.115V-.03a2.27,2.27,0,0,1-.52.12A4.8,4.8,0,0,1,2.7.12,2.883,2.883,0,0,1,2,.04a1.6,1.6,0,0,1-.56-.255A1.194,1.194,0,0,1,1.065-.67,1.556,1.556,0,0,1,.93-1.35V-3.66H-.03v-1.2H.93V-6.3h1.5v1.44H3.75ZM7.56-.61H7.54a1.411,1.411,0,0,1-.665.56A2.286,2.286,0,0,1,6,.12a2.256,2.256,0,0,1-.655-.1A1.653,1.653,0,0,1,4.79-.26a1.376,1.376,0,0,1-.38-.47,1.436,1.436,0,0,1-.14-.65,1.49,1.49,0,0,1,.155-.71,1.387,1.387,0,0,1,.42-.48,2.086,2.086,0,0,1,.605-.3,4.416,4.416,0,0,1,.7-.155,6.734,6.734,0,0,1,.73-.06q.365-.01.675-.01a.78.78,0,0,0-.285-.635A1.028,1.028,0,0,0,6.6-3.96a1.468,1.468,0,0,0-.675.155,1.844,1.844,0,0,0-.545.425l-.8-.82a2.753,2.753,0,0,1,.98-.585,3.5,3.5,0,0,1,1.16-.2,3.033,3.033,0,0,1,1.085.165,1.578,1.578,0,0,1,.68.485,1.869,1.869,0,0,1,.355.785,5.152,5.152,0,0,1,.1,1.075V0H7.56ZM7.19-2.13q-.17,0-.425.015a2.154,2.154,0,0,0-.49.085,1.09,1.09,0,0,0-.4.21.484.484,0,0,0-.165.39.429.429,0,0,0,.23.4.962.962,0,0,0,.48.13,1.505,1.505,0,0,0,.425-.06,1.268,1.268,0,0,0,.365-.17.822.822,0,0,0,.255-.28.807.807,0,0,0,.095-.4v-.32ZM9.88-7.56h1.5v4.62l1.66-1.92h1.84L12.95-2.67,14.93,0H13.04L11.4-2.46h-.02V0H9.88ZM20.04-.84a2.393,2.393,0,0,1-.91.71,2.726,2.726,0,0,1-1.14.25,3.063,3.063,0,0,1-1.055-.18,2.539,2.539,0,0,1-.86-.515A2.417,2.417,0,0,1,15.5-1.38a2.546,2.546,0,0,1-.21-1.05,2.546,2.546,0,0,1,.21-1.05,2.417,2.417,0,0,1,.575-.8,2.539,2.539,0,0,1,.86-.515,3.063,3.063,0,0,1,1.055-.18,2.4,2.4,0,0,1,.945.18,1.968,1.968,0,0,1,.72.515,2.345,2.345,0,0,1,.455.8,3.245,3.245,0,0,1,.16,1.05v.47H16.79a1.187,1.187,0,0,0,.39.685,1.1,1.1,0,0,0,.74.255,1.127,1.127,0,0,0,.625-.165,1.68,1.68,0,0,0,.445-.425ZM18.77-2.98a.868.868,0,0,0-.25-.65.889.889,0,0,0-.67-.27,1.126,1.126,0,0,0-.44.08,1.1,1.1,0,0,0-.325.2.9.9,0,0,0-.21.29.955.955,0,0,0-.085.345Zm5.16-.45a1.062,1.062,0,0,0-.87-.41.818.818,0,0,0-.37.09.318.318,0,0,0-.18.31.279.279,0,0,0,.185.265,2.447,2.447,0,0,0,.47.15l.61.14a2.292,2.292,0,0,1,.61.235,1.365,1.365,0,0,1,.47.435,1.3,1.3,0,0,1,.185.735,1.361,1.361,0,0,1-.2.775,1.572,1.572,0,0,1-.525.49,2.258,2.258,0,0,1-.72.26A4.28,4.28,0,0,1,22.8.12a3.821,3.821,0,0,1-1.03-.145,1.924,1.924,0,0,1-.88-.515l.91-1.01a1.51,1.51,0,0,0,.465.395,1.254,1.254,0,0,0,.595.135,1.39,1.39,0,0,0,.47-.075.277.277,0,0,0,.21-.275.3.3,0,0,0-.185-.285,2.026,2.026,0,0,0-.47-.16l-.61-.14a2.52,2.52,0,0,1-.61-.225,1.276,1.276,0,0,1-.47-.425,1.3,1.3,0,0,1-.185-.735,1.482,1.482,0,0,1,.175-.74,1.537,1.537,0,0,1,.46-.51,1.99,1.99,0,0,1,.655-.3,3,3,0,0,1,.75-.095,3.518,3.518,0,0,1,.97.14,1.8,1.8,0,0,1,.83.5ZM31.82-.61H31.8a1.411,1.411,0,0,1-.665.56,2.286,2.286,0,0,1-.875.17,2.256,2.256,0,0,1-.655-.1A1.653,1.653,0,0,1,29.05-.26a1.376,1.376,0,0,1-.38-.47,1.436,1.436,0,0,1-.14-.65,1.49,1.49,0,0,1,.155-.71,1.387,1.387,0,0,1,.42-.48,2.086,2.086,0,0,1,.6-.3,4.416,4.416,0,0,1,.7-.155,6.734,6.734,0,0,1,.73-.06q.365-.01.675-.01a.78.78,0,0,0-.285-.635,1.028,1.028,0,0,0-.675-.235,1.468,1.468,0,0,0-.675.155,1.844,1.844,0,0,0-.545.425l-.8-.82a2.753,2.753,0,0,1,.98-.585,3.5,3.5,0,0,1,1.16-.2,3.033,3.033,0,0,1,1.085.165,1.578,1.578,0,0,1,.68.485,1.869,1.869,0,0,1,.355.785,5.152,5.152,0,0,1,.1,1.075V0H31.82Zm-.37-1.52q-.17,0-.425.015a2.154,2.154,0,0,0-.49.085,1.09,1.09,0,0,0-.4.21.484.484,0,0,0-.165.39.429.429,0,0,0,.23.4.962.962,0,0,0,.48.13,1.505,1.505,0,0,0,.425-.06,1.268,1.268,0,0,0,.365-.17.822.822,0,0,0,.255-.28.807.807,0,0,0,.095-.4v-.32ZM37.1-4.86h1.44v.66h.02a1.216,1.216,0,0,1,.2-.28,1.455,1.455,0,0,1,.31-.25,1.772,1.772,0,0,1,.41-.18,1.71,1.71,0,0,1,.5-.07,1.9,1.9,0,0,1,.9.21,1.33,1.33,0,0,1,.6.66,1.622,1.622,0,0,1,.63-.67,1.893,1.893,0,0,1,.91-.2,1.856,1.856,0,0,1,.825.165,1.35,1.35,0,0,1,.53.45,1.9,1.9,0,0,1,.28.67,3.822,3.822,0,0,1,.085.825V0h-1.5V-2.83a1.128,1.128,0,0,0-.145-.585.548.548,0,0,0-.515-.245.992.992,0,0,0-.435.085.717.717,0,0,0-.28.235.977.977,0,0,0-.15.35,1.908,1.908,0,0,0-.045.42V0h-1.5V-2.57q0-.13-.01-.32a1.278,1.278,0,0,0-.07-.36.689.689,0,0,0-.195-.29.577.577,0,0,0-.4-.12.926.926,0,0,0-.47.1.716.716,0,0,0-.275.28,1.145,1.145,0,0,0-.125.395,3.4,3.4,0,0,0-.03.46V0H37.1Zm8.72,0h1.5V0h-1.5ZM45.7-6.39a.838.838,0,0,1,.255-.615.838.838,0,0,1,.615-.255.838.838,0,0,1,.615.255.838.838,0,0,1,.255.615.838.838,0,0,1-.255.615.838.838,0,0,1-.615.255.838.838,0,0,1-.615-.255A.838.838,0,0,1,45.7-6.39Zm2.7,1.53h1.44v.66h.02a1.216,1.216,0,0,1,.2-.28,1.455,1.455,0,0,1,.31-.25,1.772,1.772,0,0,1,.41-.18,1.71,1.71,0,0,1,.5-.07,2.066,2.066,0,0,1,.92.175,1.33,1.33,0,0,1,.545.485,1.962,1.962,0,0,1,.265.73,5.544,5.544,0,0,1,.07.91V0h-1.5V-2.38q0-.21-.015-.435a1.372,1.372,0,0,0-.09-.415.716.716,0,0,0-.23-.31.715.715,0,0,0-.445-.12.926.926,0,0,0-.47.1.716.716,0,0,0-.275.28,1.145,1.145,0,0,0-.125.395,3.4,3.4,0,0,0-.03.46V0H48.4ZM58.82,0H57.38V-.66h-.02a1.661,1.661,0,0,1-.205.28,1.345,1.345,0,0,1-.3.25,1.772,1.772,0,0,1-.41.18,1.71,1.71,0,0,1-.5.07,2.1,2.1,0,0,1-.925-.175,1.324,1.324,0,0,1-.55-.485,1.9,1.9,0,0,1-.26-.73,5.961,5.961,0,0,1-.065-.91V-4.86h1.5v2.38q0,.21.015.435a1.372,1.372,0,0,0,.09.415.716.716,0,0,0,.23.31.715.715,0,0,0,.445.12.926.926,0,0,0,.47-.105.716.716,0,0,0,.275-.28,1.145,1.145,0,0,0,.125-.395,3.4,3.4,0,0,0,.03-.46V-4.86h1.5Zm4.37-3.66H61.87v1.62a3.049,3.049,0,0,0,.02.365.736.736,0,0,0,.09.285A.455.455,0,0,0,62.2-1.2a.953.953,0,0,0,.385.065,2.593,2.593,0,0,0,.315-.025.534.534,0,0,0,.3-.115V-.03a2.27,2.27,0,0,1-.52.12,4.8,4.8,0,0,1-.53.03,2.883,2.883,0,0,1-.7-.08,1.6,1.6,0,0,1-.56-.255,1.194,1.194,0,0,1-.375-.455,1.556,1.556,0,0,1-.135-.68V-3.66h-.96v-1.2h.96V-6.3h1.5v1.44h1.32ZM68.55-.84a2.393,2.393,0,0,1-.91.71A2.726,2.726,0,0,1,66.5.12a3.063,3.063,0,0,1-1.055-.18,2.539,2.539,0,0,1-.86-.515,2.417,2.417,0,0,1-.575-.805,2.546,2.546,0,0,1-.21-1.05,2.546,2.546,0,0,1,.21-1.05,2.417,2.417,0,0,1,.575-.8,2.539,2.539,0,0,1,.86-.515A3.063,3.063,0,0,1,66.5-4.98a2.4,2.4,0,0,1,.945.18,1.968,1.968,0,0,1,.72.515,2.345,2.345,0,0,1,.455.8,3.245,3.245,0,0,1,.16,1.05v.47H65.3a1.187,1.187,0,0,0,.39.685,1.1,1.1,0,0,0,.74.255,1.127,1.127,0,0,0,.625-.165A1.681,1.681,0,0,0,67.5-1.61ZM67.28-2.98a.868.868,0,0,0-.25-.65.889.889,0,0,0-.67-.27,1.127,1.127,0,0,0-.44.08,1.1,1.1,0,0,0-.325.2.9.9,0,0,0-.21.29.955.955,0,0,0-.085.345Zm8.68-.68H74.64v1.62a3.048,3.048,0,0,0,.02.365.735.735,0,0,0,.09.285.455.455,0,0,0,.215.185.953.953,0,0,0,.385.065,2.593,2.593,0,0,0,.315-.025.534.534,0,0,0,.295-.115V-.03a2.269,2.269,0,0,1-.52.12,4.8,4.8,0,0,1-.53.03,2.883,2.883,0,0,1-.7-.08,1.6,1.6,0,0,1-.56-.255,1.194,1.194,0,0,1-.375-.455,1.555,1.555,0,0,1-.135-.68V-3.66h-.96v-1.2h.96V-6.3h1.5v1.44h1.32Zm.58,1.23a2.546,2.546,0,0,1,.21-1.05,2.417,2.417,0,0,1,.575-.8,2.539,2.539,0,0,1,.86-.515,3.063,3.063,0,0,1,1.055-.18A3.063,3.063,0,0,1,80.3-4.8a2.539,2.539,0,0,1,.86.515,2.417,2.417,0,0,1,.575.8,2.546,2.546,0,0,1,.21,1.05,2.546,2.546,0,0,1-.21,1.05,2.417,2.417,0,0,1-.575.805,2.539,2.539,0,0,1-.86.515A3.063,3.063,0,0,1,79.24.12a3.063,3.063,0,0,1-1.055-.18,2.539,2.539,0,0,1-.86-.515,2.417,2.417,0,0,1-.575-.805A2.546,2.546,0,0,1,76.54-2.43Zm1.5,0a1.257,1.257,0,0,0,.315.89,1.147,1.147,0,0,0,.885.34,1.147,1.147,0,0,0,.885-.34,1.257,1.257,0,0,0,.315-.89,1.257,1.257,0,0,0-.315-.89,1.147,1.147,0,0,0-.885-.34,1.147,1.147,0,0,0-.885.34A1.257,1.257,0,0,0,78.04-2.43ZM88.83-.61h-.02a1.411,1.411,0,0,1-.665.56,2.286,2.286,0,0,1-.875.17,2.256,2.256,0,0,1-.655-.1A1.653,1.653,0,0,1,86.06-.26a1.376,1.376,0,0,1-.38-.47,1.436,1.436,0,0,1-.14-.65,1.49,1.49,0,0,1,.155-.71,1.387,1.387,0,0,1,.42-.48,2.086,2.086,0,0,1,.605-.3,4.416,4.416,0,0,1,.705-.155,6.734,6.734,0,0,1,.73-.06q.365-.01.675-.01a.78.78,0,0,0-.285-.635,1.028,1.028,0,0,0-.675-.235A1.468,1.468,0,0,0,87.2-3.8a1.844,1.844,0,0,0-.545.425l-.8-.82a2.753,2.753,0,0,1,.98-.585,3.5,3.5,0,0,1,1.16-.2,3.033,3.033,0,0,1,1.085.165,1.578,1.578,0,0,1,.68.485,1.869,1.869,0,0,1,.355.785,5.152,5.152,0,0,1,.1,1.075V0H88.83Zm-.37-1.52q-.17,0-.425.015a2.154,2.154,0,0,0-.49.085,1.09,1.09,0,0,0-.4.21.484.484,0,0,0-.165.39.429.429,0,0,0,.23.4.962.962,0,0,0,.48.13,1.505,1.505,0,0,0,.425-.06,1.268,1.268,0,0,0,.365-.17.822.822,0,0,0,.255-.28.807.807,0,0,0,.1-.4v-.32ZM96.25,0H94.87V-.64h-.02a1.658,1.658,0,0,1-.235.265,1.778,1.778,0,0,1-.34.245,2.081,2.081,0,0,1-.43.18,1.69,1.69,0,0,1-.485.07,2.5,2.5,0,0,1-.98-.185,2.185,2.185,0,0,1-.755-.52,2.319,2.319,0,0,1-.485-.8,2.893,2.893,0,0,1-.17-1.01,3.063,3.063,0,0,1,.155-.975,2.683,2.683,0,0,1,.44-.825,2.149,2.149,0,0,1,.695-.575,1.972,1.972,0,0,1,.93-.215,2.577,2.577,0,0,1,.875.145,1.4,1.4,0,0,1,.665.5h.02V-7.56h1.5ZM94.87-2.43a1.257,1.257,0,0,0-.315-.89,1.147,1.147,0,0,0-.885-.34,1.147,1.147,0,0,0-.885.34,1.257,1.257,0,0,0-.315.89,1.257,1.257,0,0,0,.315.89,1.147,1.147,0,0,0,.885.34,1.147,1.147,0,0,0,.885-.34A1.257,1.257,0,0,0,94.87-2.43Zm2.58-2.43h1.44v.66h.02a1.216,1.216,0,0,1,.2-.28,1.454,1.454,0,0,1,.31-.25,1.772,1.772,0,0,1,.41-.18,1.71,1.71,0,0,1,.5-.07,1.9,1.9,0,0,1,.9.21,1.33,1.33,0,0,1,.6.66,1.622,1.622,0,0,1,.63-.67,1.893,1.893,0,0,1,.91-.2,1.856,1.856,0,0,1,.825.165,1.35,1.35,0,0,1,.53.45,1.9,1.9,0,0,1,.28.67,3.822,3.822,0,0,1,.085.825V0h-1.5V-2.83a1.128,1.128,0,0,0-.145-.585.548.548,0,0,0-.515-.245.992.992,0,0,0-.435.085.717.717,0,0,0-.28.235.977.977,0,0,0-.15.35,1.908,1.908,0,0,0-.045.42V0h-1.5V-2.57q0-.13-.01-.32a1.277,1.277,0,0,0-.07-.36.689.689,0,0,0-.195-.29.577.577,0,0,0-.395-.12.926.926,0,0,0-.47.1.716.716,0,0,0-.275.28,1.145,1.145,0,0,0-.125.395,3.4,3.4,0,0,0-.03.46V0h-1.5Zm8.72,0h1.5V0h-1.5Zm-.12-1.53a.838.838,0,0,1,.255-.615.838.838,0,0,1,.615-.255.838.838,0,0,1,.615.255.838.838,0,0,1,.255.615.838.838,0,0,1-.255.615.838.838,0,0,1-.615.255.838.838,0,0,1-.615-.255A.838.838,0,0,1,106.05-6.39Zm2.7,1.53h1.44v.66h.02a1.216,1.216,0,0,1,.2-.28,1.454,1.454,0,0,1,.31-.25,1.772,1.772,0,0,1,.41-.18,1.71,1.71,0,0,1,.5-.07,2.066,2.066,0,0,1,.92.175,1.33,1.33,0,0,1,.545.485,1.962,1.962,0,0,1,.265.73,5.544,5.544,0,0,1,.07.91V0h-1.5V-2.38q0-.21-.015-.435a1.373,1.373,0,0,0-.09-.415.716.716,0,0,0-.23-.31.715.715,0,0,0-.445-.12.926.926,0,0,0-.47.1.716.716,0,0,0-.275.28,1.145,1.145,0,0,0-.125.395,3.4,3.4,0,0,0-.03.46V0h-1.5Zm5.76,0h1.5V0h-1.5Zm-.12-1.53a.838.838,0,0,1,.255-.615.838.838,0,0,1,.615-.255.838.838,0,0,1,.615.255.838.838,0,0,1,.255.615.838.838,0,0,1-.255.615.838.838,0,0,1-.615.255.838.838,0,0,1-.615-.255A.838.838,0,0,1,114.39-6.39Zm5.45,2.96a1.062,1.062,0,0,0-.87-.41.818.818,0,0,0-.37.09.318.318,0,0,0-.18.31.279.279,0,0,0,.185.265,2.447,2.447,0,0,0,.47.15l.61.14a2.292,2.292,0,0,1,.61.235,1.365,1.365,0,0,1,.47.435,1.3,1.3,0,0,1,.185.735,1.361,1.361,0,0,1-.205.775,1.572,1.572,0,0,1-.525.49,2.258,2.258,0,0,1-.72.26,4.28,4.28,0,0,1-.79.075,3.821,3.821,0,0,1-1.03-.145,1.924,1.924,0,0,1-.88-.515l.91-1.01a1.51,1.51,0,0,0,.465.395,1.254,1.254,0,0,0,.6.135,1.39,1.39,0,0,0,.47-.075.277.277,0,0,0,.21-.275.3.3,0,0,0-.185-.285,2.026,2.026,0,0,0-.47-.16l-.61-.14a2.52,2.52,0,0,1-.61-.225,1.276,1.276,0,0,1-.47-.425,1.3,1.3,0,0,1-.185-.735,1.482,1.482,0,0,1,.175-.74,1.537,1.537,0,0,1,.46-.51,1.99,1.99,0,0,1,.655-.3,3,3,0,0,1,.75-.095,3.518,3.518,0,0,1,.97.14,1.8,1.8,0,0,1,.83.5Zm5.19-.23h-1.32v1.62a3.048,3.048,0,0,0,.02.365.735.735,0,0,0,.09.285.455.455,0,0,0,.215.185.953.953,0,0,0,.385.065,2.593,2.593,0,0,0,.315-.025.534.534,0,0,0,.295-.115V-.03a2.269,2.269,0,0,1-.52.12,4.8,4.8,0,0,1-.53.03,2.883,2.883,0,0,1-.7-.08,1.6,1.6,0,0,1-.56-.255,1.194,1.194,0,0,1-.375-.455,1.555,1.555,0,0,1-.135-.68V-3.66h-.96v-1.2h.96V-6.3h1.5v1.44h1.32Zm5.36,2.82a2.394,2.394,0,0,1-.91.71,2.726,2.726,0,0,1-1.14.25,3.063,3.063,0,0,1-1.055-.18,2.539,2.539,0,0,1-.86-.515,2.417,2.417,0,0,1-.575-.805,2.546,2.546,0,0,1-.21-1.05,2.546,2.546,0,0,1,.21-1.05,2.417,2.417,0,0,1,.575-.8,2.539,2.539,0,0,1,.86-.515,3.063,3.063,0,0,1,1.055-.18,2.4,2.4,0,0,1,.945.18,1.968,1.968,0,0,1,.72.515,2.345,2.345,0,0,1,.455.8,3.244,3.244,0,0,1,.16,1.05v.47h-3.48a1.187,1.187,0,0,0,.39.685,1.1,1.1,0,0,0,.74.255,1.127,1.127,0,0,0,.625-.165,1.68,1.68,0,0,0,.445-.425Zm-1.27-2.14a.868.868,0,0,0-.25-.65.889.889,0,0,0-.67-.27,1.126,1.126,0,0,0-.44.08,1.1,1.1,0,0,0-.325.2.9.9,0,0,0-.21.29.955.955,0,0,0-.085.345Zm2.41-1.88h1.5v.78h.02a1.844,1.844,0,0,1,.57-.675,1.441,1.441,0,0,1,.83-.225q.13,0,.26.01a1.288,1.288,0,0,1,.24.04v1.37a2.266,2.266,0,0,0-.315-.075,2.04,2.04,0,0,0-.325-.025,1.594,1.594,0,0,0-.68.12.9.9,0,0,0-.385.335,1.273,1.273,0,0,0-.175.515,5.014,5.014,0,0,0-.04.66V0h-1.5Zm6.85,2.43a2.546,2.546,0,0,1,.21-1.05,2.417,2.417,0,0,1,.575-.8,2.539,2.539,0,0,1,.86-.515,3.063,3.063,0,0,1,1.055-.18,3.063,3.063,0,0,1,1.055.18,2.539,2.539,0,0,1,.86.515,2.417,2.417,0,0,1,.575.8,2.546,2.546,0,0,1,.21,1.05,2.546,2.546,0,0,1-.21,1.05A2.417,2.417,0,0,1,143-.575a2.539,2.539,0,0,1-.86.515,3.063,3.063,0,0,1-1.055.18,3.063,3.063,0,0,1-1.055-.18,2.539,2.539,0,0,1-.86-.515,2.417,2.417,0,0,1-.575-.805A2.546,2.546,0,0,1,138.38-2.43Zm1.5,0a1.257,1.257,0,0,0,.315.89,1.147,1.147,0,0,0,.885.34,1.147,1.147,0,0,0,.885-.34,1.257,1.257,0,0,0,.315-.89,1.257,1.257,0,0,0-.315-.89,1.147,1.147,0,0,0-.885-.34,1.147,1.147,0,0,0-.885.34A1.257,1.257,0,0,0,139.88-2.43Zm4.78-2.43h1.44v.66h.02a1.215,1.215,0,0,1,.2-.28,1.455,1.455,0,0,1,.31-.25,1.772,1.772,0,0,1,.41-.18,1.71,1.71,0,0,1,.5-.07,2.066,2.066,0,0,1,.92.175,1.33,1.33,0,0,1,.545.485,1.961,1.961,0,0,1,.265.73,5.543,5.543,0,0,1,.07.91V0h-1.5V-2.38q0-.21-.015-.435a1.373,1.373,0,0,0-.09-.415.716.716,0,0,0-.23-.31.715.715,0,0,0-.445-.12.926.926,0,0,0-.47.1.716.716,0,0,0-.275.28,1.145,1.145,0,0,0-.125.395,3.4,3.4,0,0,0-.03.46V0h-1.5Zm9.03,1.57a.84.84,0,0,0-.31-.265.911.911,0,0,0-.43-.1,1.147,1.147,0,0,0-.885.34,1.257,1.257,0,0,0-.315.89,1.257,1.257,0,0,0,.315.89,1.147,1.147,0,0,0,.885.34.809.809,0,0,0,.43-.11,1.311,1.311,0,0,0,.31-.26l.99,1.04a1.913,1.913,0,0,1-.825.5,3.1,3.1,0,0,1-.9.145A3.063,3.063,0,0,1,151.9-.06a2.539,2.539,0,0,1-.86-.515,2.417,2.417,0,0,1-.575-.805,2.546,2.546,0,0,1-.21-1.05,2.546,2.546,0,0,1,.21-1.05,2.417,2.417,0,0,1,.575-.8,2.539,2.539,0,0,1,.86-.515,3.063,3.063,0,0,1,1.055-.18,3.1,3.1,0,0,1,.9.145,1.913,1.913,0,0,1,.825.505Zm6.13,2.45a2.394,2.394,0,0,1-.91.71,2.726,2.726,0,0,1-1.14.25,3.063,3.063,0,0,1-1.055-.18,2.539,2.539,0,0,1-.86-.515,2.417,2.417,0,0,1-.575-.805,2.546,2.546,0,0,1-.21-1.05,2.546,2.546,0,0,1,.21-1.05,2.417,2.417,0,0,1,.575-.8,2.539,2.539,0,0,1,.86-.515,3.063,3.063,0,0,1,1.055-.18,2.4,2.4,0,0,1,.945.18,1.968,1.968,0,0,1,.72.515,2.345,2.345,0,0,1,.455.8,3.244,3.244,0,0,1,.16,1.05v.47h-3.48a1.187,1.187,0,0,0,.39.685,1.1,1.1,0,0,0,.74.255,1.127,1.127,0,0,0,.625-.165,1.68,1.68,0,0,0,.445-.425Zm-1.27-2.14a.868.868,0,0,0-.25-.65.889.889,0,0,0-.67-.27,1.126,1.126,0,0,0-.44.08,1.1,1.1,0,0,0-.325.2.9.9,0,0,0-.21.29.955.955,0,0,0-.085.345Zm5.39-1.88h1.5V0h-1.5Zm-.12-1.53a.838.838,0,0,1,.255-.615.838.838,0,0,1,.615-.255.838.838,0,0,1,.615.255.838.838,0,0,1,.255.615.838.838,0,0,1-.255.615.838.838,0,0,1-.615.255.838.838,0,0,1-.615-.255A.838.838,0,0,1,163.82-6.39Zm6.01,2.73h-1.32v1.62a3.052,3.052,0,0,0,.02.365.735.735,0,0,0,.09.285.455.455,0,0,0,.215.185.953.953,0,0,0,.385.065,2.593,2.593,0,0,0,.315-.025.534.534,0,0,0,.295-.115V-.03a2.27,2.27,0,0,1-.52.12,4.8,4.8,0,0,1-.53.03,2.883,2.883,0,0,1-.7-.08,1.6,1.6,0,0,1-.56-.255,1.194,1.194,0,0,1-.375-.455,1.556,1.556,0,0,1-.135-.68V-3.66h-.96v-1.2h.96V-6.3h1.5v1.44h1.32Zm1.9-.6h-1.28l.74-2.82h1.44Zm3.83.83a1.062,1.062,0,0,0-.87-.41.818.818,0,0,0-.37.09.318.318,0,0,0-.18.31.279.279,0,0,0,.185.265,2.447,2.447,0,0,0,.47.15l.61.14a2.292,2.292,0,0,1,.61.235,1.365,1.365,0,0,1,.47.435,1.3,1.3,0,0,1,.185.735,1.361,1.361,0,0,1-.205.775,1.572,1.572,0,0,1-.525.49,2.258,2.258,0,0,1-.72.26,4.28,4.28,0,0,1-.79.075,3.821,3.821,0,0,1-1.03-.145,1.924,1.924,0,0,1-.88-.515l.91-1.01a1.51,1.51,0,0,0,.465.395,1.254,1.254,0,0,0,.6.135,1.39,1.39,0,0,0,.47-.075.277.277,0,0,0,.21-.275.3.3,0,0,0-.185-.285,2.026,2.026,0,0,0-.47-.16l-.61-.14a2.52,2.52,0,0,1-.61-.225,1.276,1.276,0,0,1-.47-.425,1.3,1.3,0,0,1-.185-.735,1.482,1.482,0,0,1,.175-.74,1.538,1.538,0,0,1,.46-.51,1.99,1.99,0,0,1,.655-.3,3,3,0,0,1,.75-.095,3.518,3.518,0,0,1,.97.14,1.8,1.8,0,0,1,.83.5Zm4.98-1.43h1.38v.64h.02a1.657,1.657,0,0,1,.235-.265,1.778,1.778,0,0,1,.34-.245,2.115,2.115,0,0,1,.425-.18,1.674,1.674,0,0,1,.49-.07,2.5,2.5,0,0,1,.98.185,2.185,2.185,0,0,1,.755.52,2.319,2.319,0,0,1,.485.8,2.893,2.893,0,0,1,.17,1.01,3.063,3.063,0,0,1-.155.975,2.683,2.683,0,0,1-.44.825,2.149,2.149,0,0,1-.695.575,1.972,1.972,0,0,1-.93.215,2.577,2.577,0,0,1-.875-.145,1.4,1.4,0,0,1-.665-.495h-.02v2.8h-1.5Zm1.38,2.43a1.257,1.257,0,0,0,.315.89,1.147,1.147,0,0,0,.885.34,1.147,1.147,0,0,0,.885-.34,1.257,1.257,0,0,0,.315-.89,1.257,1.257,0,0,0-.315-.89,1.147,1.147,0,0,0-.885-.34,1.147,1.147,0,0,0-.885.34A1.257,1.257,0,0,0,181.92-2.43Zm4.78-2.43h1.5v.78h.02a1.844,1.844,0,0,1,.57-.675,1.441,1.441,0,0,1,.83-.225q.13,0,.26.01a1.288,1.288,0,0,1,.24.04v1.37a2.266,2.266,0,0,0-.315-.075,2.04,2.04,0,0,0-.325-.025,1.594,1.594,0,0,0-.68.12.9.9,0,0,0-.385.335,1.273,1.273,0,0,0-.175.515,5.014,5.014,0,0,0-.04.66V0h-1.5Zm8.49,4.02a2.394,2.394,0,0,1-.91.71,2.726,2.726,0,0,1-1.14.25,3.063,3.063,0,0,1-1.055-.18,2.539,2.539,0,0,1-.86-.515,2.417,2.417,0,0,1-.575-.805,2.546,2.546,0,0,1-.21-1.05,2.546,2.546,0,0,1,.21-1.05,2.417,2.417,0,0,1,.575-.8,2.539,2.539,0,0,1,.86-.515,3.063,3.063,0,0,1,1.055-.18,2.4,2.4,0,0,1,.945.18,1.968,1.968,0,0,1,.72.515,2.345,2.345,0,0,1,.455.8,3.244,3.244,0,0,1,.16,1.05v.47h-3.48a1.187,1.187,0,0,0,.39.685,1.1,1.1,0,0,0,.74.255,1.127,1.127,0,0,0,.625-.165,1.68,1.68,0,0,0,.445-.425Zm-1.27-2.14a.868.868,0,0,0-.25-.65A.889.889,0,0,0,193-3.9a1.126,1.126,0,0,0-.44.08,1.1,1.1,0,0,0-.325.2.9.9,0,0,0-.21.29.955.955,0,0,0-.085.345Zm2.55-1.88h1.38v.64h.02a1.657,1.657,0,0,1,.235-.265,1.778,1.778,0,0,1,.34-.245,2.115,2.115,0,0,1,.425-.18,1.674,1.674,0,0,1,.49-.07,2.5,2.5,0,0,1,.98.185,2.185,2.185,0,0,1,.755.52,2.319,2.319,0,0,1,.485.8,2.893,2.893,0,0,1,.17,1.01,3.063,3.063,0,0,1-.155.975,2.683,2.683,0,0,1-.44.825,2.149,2.149,0,0,1-.695.575,1.972,1.972,0,0,1-.93.215,2.577,2.577,0,0,1-.875-.145,1.4,1.4,0,0,1-.665-.495h-.02v2.8h-1.5Zm1.38,2.43a1.257,1.257,0,0,0,.315.89,1.147,1.147,0,0,0,.885.34,1.147,1.147,0,0,0,.885-.34,1.257,1.257,0,0,0,.315-.89,1.257,1.257,0,0,0-.315-.89,1.147,1.147,0,0,0-.885-.34,1.147,1.147,0,0,0-.885.34A1.257,1.257,0,0,0,197.85-2.43Zm7.83,1.82h-.02A1.411,1.411,0,0,1,205-.05a2.286,2.286,0,0,1-.875.17,2.256,2.256,0,0,1-.655-.1,1.653,1.653,0,0,1-.555-.285,1.376,1.376,0,0,1-.38-.47,1.435,1.435,0,0,1-.14-.65,1.49,1.49,0,0,1,.155-.71,1.387,1.387,0,0,1,.42-.48,2.086,2.086,0,0,1,.6-.3,4.417,4.417,0,0,1,.705-.155,6.734,6.734,0,0,1,.73-.06q.365-.01.675-.01a.78.78,0,0,0-.285-.635,1.028,1.028,0,0,0-.675-.235,1.468,1.468,0,0,0-.675.155,1.844,1.844,0,0,0-.545.425l-.8-.82a2.753,2.753,0,0,1,.98-.585,3.5,3.5,0,0,1,1.16-.2,3.033,3.033,0,0,1,1.085.165,1.578,1.578,0,0,1,.68.485,1.869,1.869,0,0,1,.355.785,5.152,5.152,0,0,1,.1,1.075V0h-1.38Zm-.37-1.52q-.17,0-.425.015a2.154,2.154,0,0,0-.49.085,1.09,1.09,0,0,0-.4.21.484.484,0,0,0-.165.39.429.429,0,0,0,.23.4.962.962,0,0,0,.48.13,1.505,1.505,0,0,0,.425-.06,1.267,1.267,0,0,0,.365-.17.822.822,0,0,0,.255-.28.807.807,0,0,0,.1-.4v-.32ZM208-4.86h1.5v.78h.02a1.844,1.844,0,0,1,.57-.675,1.441,1.441,0,0,1,.83-.225q.13,0,.26.01a1.288,1.288,0,0,1,.24.04v1.37a2.266,2.266,0,0,0-.315-.075,2.04,2.04,0,0,0-.325-.025,1.594,1.594,0,0,0-.68.12.9.9,0,0,0-.385.335,1.273,1.273,0,0,0-.175.515,5.014,5.014,0,0,0-.04.66V0H208Zm8.49,4.02a2.394,2.394,0,0,1-.91.71,2.726,2.726,0,0,1-1.14.25,3.063,3.063,0,0,1-1.055-.18,2.539,2.539,0,0,1-.86-.515,2.417,2.417,0,0,1-.575-.805,2.546,2.546,0,0,1-.21-1.05,2.546,2.546,0,0,1,.21-1.05,2.417,2.417,0,0,1,.575-.8,2.539,2.539,0,0,1,.86-.515,3.063,3.063,0,0,1,1.055-.18,2.4,2.4,0,0,1,.945.18,1.968,1.968,0,0,1,.72.515,2.345,2.345,0,0,1,.455.8,3.244,3.244,0,0,1,.16,1.05v.47h-3.48a1.187,1.187,0,0,0,.39.685,1.1,1.1,0,0,0,.74.255,1.127,1.127,0,0,0,.625-.165,1.68,1.68,0,0,0,.445-.425Zm-1.27-2.14a.868.868,0,0,0-.25-.65.889.889,0,0,0-.67-.27,1.126,1.126,0,0,0-.44.08,1.1,1.1,0,0,0-.325.2.9.9,0,0,0-.21.29.955.955,0,0,0-.085.345ZM222.73,0h-1.38V-.64h-.02a1.657,1.657,0,0,1-.235.265,1.778,1.778,0,0,1-.34.245,2.081,2.081,0,0,1-.43.18,1.69,1.69,0,0,1-.485.07,2.5,2.5,0,0,1-.98-.185,2.185,2.185,0,0,1-.755-.52,2.319,2.319,0,0,1-.485-.8,2.893,2.893,0,0,1-.17-1.01,3.063,3.063,0,0,1,.155-.975,2.683,2.683,0,0,1,.44-.825,2.149,2.149,0,0,1,.695-.575,1.972,1.972,0,0,1,.93-.215,2.577,2.577,0,0,1,.875.145,1.4,1.4,0,0,1,.665.5h.02V-7.56h1.5Zm-1.38-2.43a1.257,1.257,0,0,0-.315-.89,1.147,1.147,0,0,0-.885-.34,1.147,1.147,0,0,0-.885.34,1.257,1.257,0,0,0-.315.89,1.257,1.257,0,0,0,.315.89,1.147,1.147,0,0,0,.885.34,1.147,1.147,0,0,0,.885-.34A1.257,1.257,0,0,0,221.35-2.43Zm2.61,1.57a.936.936,0,0,1,.07-.36.893.893,0,0,1,.195-.295.893.893,0,0,1,.295-.2.936.936,0,0,1,.36-.07.936.936,0,0,1,.36.07.893.893,0,0,1,.295.2.893.893,0,0,1,.2.295.936.936,0,0,1,.07.36.936.936,0,0,1-.07.36.893.893,0,0,1-.2.295.893.893,0,0,1-.295.2.936.936,0,0,1-.36.07.936.936,0,0,1-.36-.07.893.893,0,0,1-.295-.2A.893.893,0,0,1,224.03-.5.936.936,0,0,1,223.96-.86Z" transform="translate(241.6 81.56)" fill="#00416b"/>
    <path id="Path_71" data-name="Path 71" d="M-152.53-3.43a1.062,1.062,0,0,0-.87-.41.818.818,0,0,0-.37.09.318.318,0,0,0-.18.31.279.279,0,0,0,.185.265,2.447,2.447,0,0,0,.47.15l.61.14a2.292,2.292,0,0,1,.61.235,1.365,1.365,0,0,1,.47.435,1.3,1.3,0,0,1,.185.735,1.361,1.361,0,0,1-.205.775,1.572,1.572,0,0,1-.525.49,2.258,2.258,0,0,1-.72.26,4.28,4.28,0,0,1-.79.075,3.821,3.821,0,0,1-1.03-.145,1.924,1.924,0,0,1-.88-.515l.91-1.01a1.51,1.51,0,0,0,.465.395,1.254,1.254,0,0,0,.6.135,1.39,1.39,0,0,0,.47-.075.277.277,0,0,0,.21-.275.3.3,0,0,0-.185-.285,2.026,2.026,0,0,0-.47-.16l-.61-.14a2.52,2.52,0,0,1-.61-.225,1.276,1.276,0,0,1-.47-.425,1.3,1.3,0,0,1-.185-.735,1.482,1.482,0,0,1,.175-.74,1.538,1.538,0,0,1,.46-.51,1.99,1.99,0,0,1,.655-.3,3,3,0,0,1,.75-.095,3.518,3.518,0,0,1,.97.14,1.8,1.8,0,0,1,.83.5ZM-145.97,0h-1.44V-.66h-.02a1.661,1.661,0,0,1-.205.28,1.345,1.345,0,0,1-.3.25,1.773,1.773,0,0,1-.41.18,1.71,1.71,0,0,1-.5.07,2.1,2.1,0,0,1-.925-.175,1.324,1.324,0,0,1-.55-.485,1.9,1.9,0,0,1-.26-.73,5.961,5.961,0,0,1-.065-.91V-4.86h1.5v2.38q0,.21.015.435a1.372,1.372,0,0,0,.09.415.716.716,0,0,0,.23.31.715.715,0,0,0,.445.12.926.926,0,0,0,.47-.105.716.716,0,0,0,.275-.28,1.145,1.145,0,0,0,.125-.395,3.4,3.4,0,0,0,.03-.46V-4.86h1.5Zm1.2-7.56h1.5v3.22h.02a1.4,1.4,0,0,1,.665-.5,2.577,2.577,0,0,1,.875-.145,1.972,1.972,0,0,1,.93.215,2.149,2.149,0,0,1,.695.575,2.683,2.683,0,0,1,.44.825,3.063,3.063,0,0,1,.155.975,2.893,2.893,0,0,1-.17,1.01,2.319,2.319,0,0,1-.485.8,2.185,2.185,0,0,1-.755.52,2.5,2.5,0,0,1-.98.185,1.674,1.674,0,0,1-.49-.07,2.115,2.115,0,0,1-.425-.18,1.778,1.778,0,0,1-.34-.245,1.657,1.657,0,0,1-.235-.265h-.02V0h-1.38Zm1.38,5.13a1.257,1.257,0,0,0,.315.89,1.147,1.147,0,0,0,.885.34,1.147,1.147,0,0,0,.885-.34,1.257,1.257,0,0,0,.315-.89,1.257,1.257,0,0,0-.315-.89,1.147,1.147,0,0,0-.885-.34,1.147,1.147,0,0,0-.885.34A1.257,1.257,0,0,0-143.39-2.43Zm8.07-.86a.84.84,0,0,0-.31-.265.911.911,0,0,0-.43-.1,1.147,1.147,0,0,0-.885.34,1.257,1.257,0,0,0-.315.89,1.257,1.257,0,0,0,.315.89,1.147,1.147,0,0,0,.885.34.809.809,0,0,0,.43-.11,1.311,1.311,0,0,0,.31-.26l.99,1.04a1.913,1.913,0,0,1-.825.5,3.1,3.1,0,0,1-.9.145,3.063,3.063,0,0,1-1.055-.18,2.539,2.539,0,0,1-.86-.515,2.417,2.417,0,0,1-.575-.805,2.546,2.546,0,0,1-.21-1.05,2.546,2.546,0,0,1,.21-1.05,2.417,2.417,0,0,1,.575-.8,2.539,2.539,0,0,1,.86-.515,3.063,3.063,0,0,1,1.055-.18,3.1,3.1,0,0,1,.9.145,1.913,1.913,0,0,1,.825.505ZM-129.11,0h-1.44V-.66h-.02a1.661,1.661,0,0,1-.205.28,1.345,1.345,0,0,1-.3.25,1.773,1.773,0,0,1-.41.18,1.71,1.71,0,0,1-.5.07,2.1,2.1,0,0,1-.925-.175,1.324,1.324,0,0,1-.55-.485,1.9,1.9,0,0,1-.26-.73,5.961,5.961,0,0,1-.065-.91V-4.86h1.5v2.38q0,.21.015.435a1.372,1.372,0,0,0,.09.415.716.716,0,0,0,.23.31.715.715,0,0,0,.445.12.926.926,0,0,0,.47-.105.716.716,0,0,0,.275-.28,1.145,1.145,0,0,0,.125-.395,3.4,3.4,0,0,0,.03-.46V-4.86h1.5Zm4.37-3.66h-1.32v1.62a3.048,3.048,0,0,0,.02.365.735.735,0,0,0,.09.285.455.455,0,0,0,.215.185.953.953,0,0,0,.385.065,2.593,2.593,0,0,0,.315-.025.534.534,0,0,0,.295-.115V-.03a2.269,2.269,0,0,1-.52.12,4.8,4.8,0,0,1-.53.03,2.883,2.883,0,0,1-.7-.08,1.6,1.6,0,0,1-.56-.255,1.194,1.194,0,0,1-.375-.455,1.555,1.555,0,0,1-.135-.68V-3.66h-.96v-1.2h.96V-6.3h1.5v1.44h1.32Zm3.81,3.05h-.02a1.411,1.411,0,0,1-.665.56,2.286,2.286,0,0,1-.875.17,2.256,2.256,0,0,1-.655-.1A1.653,1.653,0,0,1-123.7-.26a1.376,1.376,0,0,1-.38-.47,1.436,1.436,0,0,1-.14-.65,1.49,1.49,0,0,1,.155-.71,1.387,1.387,0,0,1,.42-.48,2.086,2.086,0,0,1,.605-.3,4.416,4.416,0,0,1,.705-.155,6.734,6.734,0,0,1,.73-.06q.365-.01.675-.01a.78.78,0,0,0-.285-.635,1.028,1.028,0,0,0-.675-.235,1.468,1.468,0,0,0-.675.155,1.844,1.844,0,0,0-.545.425l-.8-.82a2.753,2.753,0,0,1,.98-.585,3.5,3.5,0,0,1,1.16-.2,3.033,3.033,0,0,1,1.085.165,1.578,1.578,0,0,1,.68.485,1.869,1.869,0,0,1,.355.785,5.152,5.152,0,0,1,.1,1.075V0h-1.38Zm-.37-1.52q-.17,0-.425.015a2.154,2.154,0,0,0-.49.085,1.09,1.09,0,0,0-.4.21.484.484,0,0,0-.165.39.429.429,0,0,0,.23.4.962.962,0,0,0,.48.13,1.505,1.505,0,0,0,.425-.06,1.268,1.268,0,0,0,.365-.17.822.822,0,0,0,.255-.28.807.807,0,0,0,.1-.4v-.32Zm2.69-2.73h1.44v.66h.02a1.216,1.216,0,0,1,.2-.28,1.454,1.454,0,0,1,.31-.25,1.772,1.772,0,0,1,.41-.18,1.71,1.71,0,0,1,.5-.07,2.066,2.066,0,0,1,.92.175,1.33,1.33,0,0,1,.545.485,1.962,1.962,0,0,1,.265.73,5.544,5.544,0,0,1,.07.91V0h-1.5V-2.38q0-.21-.015-.435a1.373,1.373,0,0,0-.09-.415.716.716,0,0,0-.23-.31.715.715,0,0,0-.445-.12.926.926,0,0,0-.47.1.716.716,0,0,0-.275.28,1.145,1.145,0,0,0-.125.395,3.4,3.4,0,0,0-.03.46V0h-1.5Zm10.34,4.02a2.393,2.393,0,0,1-.91.71,2.726,2.726,0,0,1-1.14.25,3.063,3.063,0,0,1-1.055-.18,2.539,2.539,0,0,1-.86-.515,2.417,2.417,0,0,1-.575-.805,2.546,2.546,0,0,1-.21-1.05,2.546,2.546,0,0,1,.21-1.05,2.417,2.417,0,0,1,.575-.8,2.539,2.539,0,0,1,.86-.515,3.063,3.063,0,0,1,1.055-.18,2.4,2.4,0,0,1,.945.18,1.968,1.968,0,0,1,.72.515,2.345,2.345,0,0,1,.455.8,3.245,3.245,0,0,1,.16,1.05v.47h-3.48a1.187,1.187,0,0,0,.39.685,1.1,1.1,0,0,0,.74.255,1.127,1.127,0,0,0,.625-.165,1.681,1.681,0,0,0,.445-.425Zm-1.27-2.14a.868.868,0,0,0-.25-.65.889.889,0,0,0-.67-.27,1.127,1.127,0,0,0-.44.08,1.1,1.1,0,0,0-.325.2.9.9,0,0,0-.21.29.955.955,0,0,0-.085.345Zm2.23.55a2.546,2.546,0,0,1,.21-1.05,2.417,2.417,0,0,1,.575-.8,2.539,2.539,0,0,1,.86-.515,3.063,3.063,0,0,1,1.055-.18,3.063,3.063,0,0,1,1.055.18,2.539,2.539,0,0,1,.86.515,2.417,2.417,0,0,1,.575.8,2.546,2.546,0,0,1,.21,1.05,2.546,2.546,0,0,1-.21,1.05,2.417,2.417,0,0,1-.575.805,2.539,2.539,0,0,1-.86.515,3.063,3.063,0,0,1-1.055.18,3.063,3.063,0,0,1-1.055-.18,2.539,2.539,0,0,1-.86-.515,2.417,2.417,0,0,1-.575-.805A2.546,2.546,0,0,1-107.31-2.43Zm1.5,0a1.257,1.257,0,0,0,.315.89,1.147,1.147,0,0,0,.885.34,1.147,1.147,0,0,0,.885-.34,1.257,1.257,0,0,0,.315-.89,1.257,1.257,0,0,0-.315-.89,1.147,1.147,0,0,0-.885-.34,1.147,1.147,0,0,0-.885.34A1.257,1.257,0,0,0-105.81-2.43ZM-96.35,0h-1.44V-.66h-.02a1.661,1.661,0,0,1-.205.28,1.345,1.345,0,0,1-.305.25,1.773,1.773,0,0,1-.41.18,1.71,1.71,0,0,1-.5.07,2.1,2.1,0,0,1-.925-.175,1.324,1.324,0,0,1-.55-.485,1.9,1.9,0,0,1-.26-.73,5.961,5.961,0,0,1-.065-.91V-4.86h1.5v2.38q0,.21.015.435a1.372,1.372,0,0,0,.09.415.716.716,0,0,0,.23.31.715.715,0,0,0,.445.12.926.926,0,0,0,.47-.105A.716.716,0,0,0-98-1.585a1.145,1.145,0,0,0,.125-.395,3.4,3.4,0,0,0,.03-.46V-4.86h1.5Zm3.81-3.43a1.062,1.062,0,0,0-.87-.41.818.818,0,0,0-.37.09.318.318,0,0,0-.18.31.279.279,0,0,0,.185.265,2.447,2.447,0,0,0,.47.15l.61.14a2.292,2.292,0,0,1,.61.235,1.365,1.365,0,0,1,.47.435,1.3,1.3,0,0,1,.185.735,1.361,1.361,0,0,1-.205.775,1.572,1.572,0,0,1-.525.49,2.258,2.258,0,0,1-.72.26,4.28,4.28,0,0,1-.79.075A3.821,3.821,0,0,1-94.7-.025a1.924,1.924,0,0,1-.88-.515l.91-1.01a1.51,1.51,0,0,0,.465.395,1.254,1.254,0,0,0,.6.135,1.39,1.39,0,0,0,.47-.075.277.277,0,0,0,.21-.275.3.3,0,0,0-.185-.285,2.026,2.026,0,0,0-.47-.16l-.61-.14a2.52,2.52,0,0,1-.61-.225,1.276,1.276,0,0,1-.47-.425,1.3,1.3,0,0,1-.185-.735,1.482,1.482,0,0,1,.175-.74,1.537,1.537,0,0,1,.46-.51,1.99,1.99,0,0,1,.655-.3,3,3,0,0,1,.75-.095,3.518,3.518,0,0,1,.97.14,1.8,1.8,0,0,1,.83.5Zm4.86-1.43h1.5V0h-1.5Zm-.12-1.53a.838.838,0,0,1,.255-.615.838.838,0,0,1,.615-.255.838.838,0,0,1,.615.255.838.838,0,0,1,.255.615.838.838,0,0,1-.255.615.838.838,0,0,1-.615.255.838.838,0,0,1-.615-.255A.838.838,0,0,1-87.8-6.39Zm2.7,1.53h1.44v.66h.02a1.216,1.216,0,0,1,.2-.28,1.454,1.454,0,0,1,.31-.25,1.772,1.772,0,0,1,.41-.18,1.71,1.71,0,0,1,.5-.07,2.066,2.066,0,0,1,.92.175,1.33,1.33,0,0,1,.545.485,1.962,1.962,0,0,1,.265.73,5.544,5.544,0,0,1,.07.91V0h-1.5V-2.38q0-.21-.015-.435a1.373,1.373,0,0,0-.09-.415.716.716,0,0,0-.23-.31.715.715,0,0,0-.445-.12.926.926,0,0,0-.47.1.716.716,0,0,0-.275.28,1.145,1.145,0,0,0-.125.395,3.4,3.4,0,0,0-.03.46V0h-1.5ZM-77.84.36a3.63,3.63,0,0,1-.09.845,1.626,1.626,0,0,1-.3.64,1.368,1.368,0,0,1-.555.41,2.212,2.212,0,0,1-.855.145q-.17,0-.35-.015a1.753,1.753,0,0,1-.35-.065l.08-1.33a.86.86,0,0,0,.39.09.429.429,0,0,0,.3-.1.578.578,0,0,0,.16-.25,1.238,1.238,0,0,0,.06-.32q.01-.17.01-.31V-4.86h1.5Zm-1.62-6.75a.838.838,0,0,1,.255-.615.838.838,0,0,1,.615-.255.838.838,0,0,1,.615.255.838.838,0,0,1,.255.615.838.838,0,0,1-.255.615.838.838,0,0,1-.615.255.838.838,0,0,1-.615-.255A.838.838,0,0,1-79.46-6.39Zm7.3,5.55a2.393,2.393,0,0,1-.91.71,2.726,2.726,0,0,1-1.14.25,3.063,3.063,0,0,1-1.055-.18,2.539,2.539,0,0,1-.86-.515A2.417,2.417,0,0,1-76.7-1.38a2.546,2.546,0,0,1-.21-1.05,2.546,2.546,0,0,1,.21-1.05,2.417,2.417,0,0,1,.575-.8,2.539,2.539,0,0,1,.86-.515,3.063,3.063,0,0,1,1.055-.18,2.4,2.4,0,0,1,.945.18,1.968,1.968,0,0,1,.72.515,2.345,2.345,0,0,1,.455.8,3.245,3.245,0,0,1,.16,1.05v.47h-3.48a1.187,1.187,0,0,0,.39.685,1.1,1.1,0,0,0,.74.255,1.127,1.127,0,0,0,.625-.165,1.681,1.681,0,0,0,.445-.425Zm-1.27-2.14a.868.868,0,0,0-.25-.65.889.889,0,0,0-.67-.27,1.127,1.127,0,0,0-.44.08,1.1,1.1,0,0,0-.325.2.9.9,0,0,0-.21.29.955.955,0,0,0-.085.345Zm5.7-.31a.84.84,0,0,0-.31-.265.911.911,0,0,0-.43-.1,1.147,1.147,0,0,0-.885.34,1.257,1.257,0,0,0-.315.89,1.257,1.257,0,0,0,.315.89,1.147,1.147,0,0,0,.885.34.809.809,0,0,0,.43-.11,1.311,1.311,0,0,0,.31-.26l.99,1.04a1.913,1.913,0,0,1-.825.5,3.1,3.1,0,0,1-.9.145,3.063,3.063,0,0,1-1.055-.18,2.539,2.539,0,0,1-.86-.515,2.417,2.417,0,0,1-.575-.805,2.546,2.546,0,0,1-.21-1.05,2.546,2.546,0,0,1,.21-1.05,2.417,2.417,0,0,1,.575-.8,2.539,2.539,0,0,1,.86-.515,3.063,3.063,0,0,1,1.055-.18,3.1,3.1,0,0,1,.9.145,1.913,1.913,0,0,1,.825.505Zm4.84-.37h-1.32v1.62a3.048,3.048,0,0,0,.02.365.735.735,0,0,0,.09.285.455.455,0,0,0,.215.185.953.953,0,0,0,.385.065,2.593,2.593,0,0,0,.315-.025.534.534,0,0,0,.3-.115V-.03a2.27,2.27,0,0,1-.52.12,4.8,4.8,0,0,1-.53.03,2.883,2.883,0,0,1-.7-.08,1.6,1.6,0,0,1-.56-.255,1.194,1.194,0,0,1-.375-.455,1.555,1.555,0,0,1-.135-.68V-3.66h-.96v-1.2h.96V-6.3h1.5v1.44h1.32Zm.78-1.2h1.5V0h-1.5Zm-.12-1.53a.838.838,0,0,1,.255-.615.838.838,0,0,1,.615-.255.838.838,0,0,1,.615.255.838.838,0,0,1,.255.615.838.838,0,0,1-.255.615.838.838,0,0,1-.615.255.838.838,0,0,1-.615-.255A.838.838,0,0,1-62.23-6.39Zm2.52,3.96a2.546,2.546,0,0,1,.21-1.05,2.417,2.417,0,0,1,.575-.8,2.539,2.539,0,0,1,.86-.515,3.063,3.063,0,0,1,1.055-.18,3.063,3.063,0,0,1,1.055.18,2.539,2.539,0,0,1,.86.515,2.417,2.417,0,0,1,.575.8,2.546,2.546,0,0,1,.21,1.05,2.546,2.546,0,0,1-.21,1.05,2.417,2.417,0,0,1-.575.805,2.539,2.539,0,0,1-.86.515A3.063,3.063,0,0,1-57.01.12a3.063,3.063,0,0,1-1.055-.18,2.539,2.539,0,0,1-.86-.515A2.417,2.417,0,0,1-59.5-1.38,2.546,2.546,0,0,1-59.71-2.43Zm1.5,0a1.257,1.257,0,0,0,.315.89,1.147,1.147,0,0,0,.885.34,1.147,1.147,0,0,0,.885-.34,1.257,1.257,0,0,0,.315-.89,1.257,1.257,0,0,0-.315-.89,1.147,1.147,0,0,0-.885-.34,1.147,1.147,0,0,0-.885.34A1.257,1.257,0,0,0-58.21-2.43Zm4.78-2.43h1.44v.66h.02a1.216,1.216,0,0,1,.2-.28,1.455,1.455,0,0,1,.31-.25,1.772,1.772,0,0,1,.41-.18,1.71,1.71,0,0,1,.5-.07,2.066,2.066,0,0,1,.92.175,1.33,1.33,0,0,1,.545.485,1.962,1.962,0,0,1,.265.73,5.544,5.544,0,0,1,.07.91V0h-1.5V-2.38q0-.21-.015-.435a1.372,1.372,0,0,0-.09-.415.716.716,0,0,0-.23-.31.715.715,0,0,0-.445-.12.926.926,0,0,0-.47.1.716.716,0,0,0-.275.28,1.145,1.145,0,0,0-.125.395,3.4,3.4,0,0,0-.03.46V0h-1.5Z" transform="translate(241.6 81.56)" fill="#fff"/>
  </g>
</svg>
