<svg xmlns="http://www.w3.org/2000/svg" width="146" height="41" viewBox="0 0 146 41">
  <g id="Group_14" data-name="Group 14" transform="translate(-7 -171)">
    <rect id="Rectangle_11" data-name="Rectangle 11" width="146" height="41" rx="4" transform="translate(7 171)" fill="#00416b"/>
    <path id="Path_58" data-name="Path 58" d="M-61.884,0V-11.52h4.752V0h4.464V-25.992h-4.464v10.584h-4.752V-25.992h-4.464V0Zm26.712,0V-3.888h-7.992V-11.52h5.76v-3.888h-5.76v-6.7h7.488v-3.888H-47.628V0ZM-18.9-25.992-22.068-10.8h-.072l-3.168-15.192h-5.868V0h3.888V-20.3h.072L-23.184,0h2.16l4.032-20.3h.072V0h3.888V-25.992ZM3.06,0V-3.888H-3.96v-22.1H-8.424V0Zm8.532,0V-25.992H7.128V0ZM21.708-11.664h1.44c2.664,0,3.672,1.332,3.672,4,0,2.628-.864,4-3.24,4H21.708Zm0-10.656H23.4c1.98,0,2.916,1.26,2.916,3.672,0,2.16-1.3,3.312-2.988,3.312h-1.62ZM17.244,0H24.3c5.076,0,6.984-3.24,6.984-7.524,0-3.348-1.332-5.148-3.6-6.156,2.16-.864,3.1-3.2,3.1-5.436,0-4.428-2.124-6.876-6.912-6.876H17.244ZM40.428-22.32h1.584c2.412,0,3.312.9,3.312,4s-.9,4-3.312,4H40.428Zm0,11.664a21.53,21.53,0,0,0,2.3-.108L45.9,0h4.536l-3.78-11.772c1.512-.684,3.132-2.376,3.132-6.552,0-5.544-2.556-7.668-7.56-7.668H35.964V0h4.464ZM60.48-20.808h.072l1.764,11.16h-3.6ZM58.068-5.76h4.9L63.756,0h4.32L63.288-25.992H57.744L52.956,0h4.32Z" transform="translate(80 204)" fill="#87dfff"/>
  </g>
</svg>
