<svg xmlns="http://www.w3.org/2000/svg" width="162.912" height="17.808" viewBox="0 0 162.912 17.808">
  <path id="Path_68" data-name="Path 68" d="M-77.088-13.872h.048l1.176,7.44h-2.4ZM-78.7-3.84h3.264L-74.9,0h2.88l-3.192-17.328h-3.7L-82.1,0h2.88ZM-64.92-14.88h1.032c1.584,0,2.136.6,2.136,2.424v7.584c0,1.824-.552,2.424-2.136,2.424H-64.92ZM-67.9,0h4.416c3.072,0,4.7-1.68,4.7-5.232V-12.1c0-3.552-1.632-5.232-4.7-5.232H-67.9ZM-45.48-17.328-47.592-7.2h-.048l-2.112-10.128h-3.912V0h2.592V-13.536h.048L-48.336,0h1.44l2.688-13.536h.048V0h2.592V-17.328ZM-33.048,0V-17.328h-2.976V0Zm8.376,0V-10.824h.048L-20.832,0h2.592V-17.328h-2.688v9.912h-.048L-24.6-17.328h-2.76V0Zm15.1,0V-17.328h-2.976V0ZM4.368-13.368c-.264-2.448-1.7-4.2-4.128-4.2-2.928,0-4.608,1.56-4.608,4.32,0,4.968,6.048,5.88,6.048,9.312A1.529,1.529,0,0,1-.048-2.352c-.96,0-1.656-.864-1.776-2.616l-2.832.408c.12,2.592,1.7,4.8,4.464,4.8,2.784,0,4.7-1.584,4.7-4.44,0-4.7-6.048-6.12-6.048-9.072,0-1.08.528-1.7,1.488-1.7.672,0,1.464.432,1.584,1.92ZM10.9,0h2.976V-14.736h2.88v-2.592H8.016v2.592H10.9ZM29.208,0V-2.592H23.88V-7.68h3.84v-2.592H23.88v-4.464h4.992v-2.592H20.9V0Zm7.728-14.88h1.056c1.608,0,2.208.6,2.208,2.664s-.6,2.664-2.208,2.664H36.936Zm0,7.776a14.353,14.353,0,0,0,1.536-.072L40.584,0h3.024l-2.52-7.848c1.008-.456,2.088-1.584,2.088-4.368,0-3.7-1.7-5.112-5.04-5.112H33.96V0h2.976ZM51.744,0V-17.328H48.768V0ZM60.12,0V-10.824h.048L63.96,0h2.592V-17.328H63.864v9.912h-.048l-3.624-9.912h-2.76V0ZM75.936-6.432h1.9v1.68c0,1.728-.432,2.4-1.632,2.4-1.032,0-1.392-.72-1.392-1.824v-8.9c0-1.464.6-1.9,1.32-1.9,1.176,0,1.7.672,1.7,3.264h2.832v-1.1c0-2.592-1.488-4.752-4.464-4.752a4.109,4.109,0,0,0-4.368,4.44V-4.2c0,2.76,1.632,4.44,3.984,4.44a3.456,3.456,0,0,0,3-1.536L79.368,0h1.44V-8.784H75.936Z" transform="translate(82.104 17.568)" fill="#fff"/>
</svg>
