<svg xmlns="http://www.w3.org/2000/svg" width="211.296" height="27.592" viewBox="0 0 211.296 27.592">
  <path id="Path_66" data-name="Path 66" d="M-105.648-8.5h3.156a6.233,6.233,0,0,1,1.248.12,2.838,2.838,0,0,1,1.026.414,2.093,2.093,0,0,1,.7.792,2.712,2.712,0,0,1,.258,1.254,2.893,2.893,0,0,1-.24,1.248,2.047,2.047,0,0,1-.66.8,2.676,2.676,0,0,1-1,.426,5.838,5.838,0,0,1-1.248.126h-1.368V0h-1.872Zm1.872,3.6h1.248a2.413,2.413,0,0,0,.486-.048,1.294,1.294,0,0,0,.42-.162.864.864,0,0,0,.3-.312.987.987,0,0,0,.114-.5.842.842,0,0,0-.15-.522,1,1,0,0,0-.384-.306,1.644,1.644,0,0,0-.522-.138,5.334,5.334,0,0,0-.552-.03h-.96Zm5.688-3.6H-94.8a5.8,5.8,0,0,1,1.23.126,2.918,2.918,0,0,1,1.02.42,2.093,2.093,0,0,1,.7.792A2.682,2.682,0,0,1-91.6-5.916a2.494,2.494,0,0,1-.468,1.53,2.107,2.107,0,0,1-1.368.8L-91.272,0h-2.244l-1.776-3.4h-.924V0h-1.872Zm1.872,3.516h1.1q.252,0,.534-.018a1.673,1.673,0,0,0,.51-.108.882.882,0,0,0,.378-.282.859.859,0,0,0,.15-.54.9.9,0,0,0-.132-.516.88.88,0,0,0-.336-.294,1.491,1.491,0,0,0-.468-.138,3.817,3.817,0,0,0-.516-.036h-1.224ZM-90.24-8.5h5.772v1.728h-3.9v1.584h3.684v1.728h-3.684v1.728h4.116V0H-90.24Zm7.488,0H-79.6a6.233,6.233,0,0,1,1.248.12,2.838,2.838,0,0,1,1.026.414,2.093,2.093,0,0,1,.7.792,2.712,2.712,0,0,1,.258,1.254,2.893,2.893,0,0,1-.24,1.248,2.047,2.047,0,0,1-.66.8,2.676,2.676,0,0,1-1,.426,5.838,5.838,0,0,1-1.248.126H-80.88V0h-1.872Zm1.872,3.6h1.248a2.413,2.413,0,0,0,.486-.048,1.294,1.294,0,0,0,.42-.162.864.864,0,0,0,.3-.312.987.987,0,0,0,.114-.5.842.842,0,0,0-.15-.522,1,1,0,0,0-.384-.306,1.644,1.644,0,0,0-.522-.138,5.334,5.334,0,0,0-.552-.03h-.96Zm7.6-3.6h1.548l3.7,8.5h-2.112l-.732-1.8h-3.3L-74.892,0h-2.064Zm.72,2.472L-73.6-3.384h2.076ZM-67.188-8.5H-63.9a5.8,5.8,0,0,1,1.23.126,2.918,2.918,0,0,1,1.02.42,2.093,2.093,0,0,1,.7.792A2.682,2.682,0,0,1-60.7-5.916a2.494,2.494,0,0,1-.468,1.53,2.107,2.107,0,0,1-1.368.8L-60.372,0h-2.244l-1.776-3.4h-.924V0h-1.872Zm1.872,3.516h1.1q.252,0,.534-.018a1.673,1.673,0,0,0,.51-.108.882.882,0,0,0,.378-.282.859.859,0,0,0,.15-.54.9.9,0,0,0-.132-.516.88.88,0,0,0-.336-.294,1.491,1.491,0,0,0-.468-.138,3.817,3.817,0,0,0-.516-.036h-1.224Zm5.88-3.516h1.872V0h-1.872Zm3.576,0h2.544l3.612,5.9h.024V-8.5h1.872V0h-2.448l-3.708-6.048h-.024V0H-55.86ZM-38.388-.6a6.777,6.777,0,0,1-1.728.624,8.775,8.775,0,0,1-1.836.192A5.234,5.234,0,0,1-43.788-.1,4.2,4.2,0,0,1-45.24-.99a4.053,4.053,0,0,1-.954-1.41,4.8,4.8,0,0,1-.342-1.848A4.8,4.8,0,0,1-46.194-6.1a4.053,4.053,0,0,1,.954-1.41A4.2,4.2,0,0,1-43.788-8.4a5.234,5.234,0,0,1,1.836-.312,6.8,6.8,0,0,1,1.878.246,3.677,3.677,0,0,1,1.506.846l-1.32,1.44a2.63,2.63,0,0,0-.864-.6,3.079,3.079,0,0,0-1.2-.2,2.78,2.78,0,0,0-1.086.2,2.437,2.437,0,0,0-.834.57,2.5,2.5,0,0,0-.534.87,3.13,3.13,0,0,0-.186,1.092,3.116,3.116,0,0,0,.186,1.1,2.515,2.515,0,0,0,.534.864,2.437,2.437,0,0,0,.834.57,2.78,2.78,0,0,0,1.086.2A3.578,3.578,0,0,0-40.9-1.65a3.985,3.985,0,0,0,.708-.282v-1.38h-1.524V-5.04h3.324ZM-31.1-3.624-34.3-8.5h2.328l1.8,3.18L-28.26-8.5h2.22l-3.192,4.872V0H-31.1Zm5.232-.624A4.8,4.8,0,0,1-25.53-6.1a4.053,4.053,0,0,1,.954-1.41A4.2,4.2,0,0,1-23.124-8.4a5.234,5.234,0,0,1,1.836-.312,5.234,5.234,0,0,1,1.836.312A4.2,4.2,0,0,1-18-7.506a4.053,4.053,0,0,1,.954,1.41A4.8,4.8,0,0,1-16.7-4.248,4.8,4.8,0,0,1-17.046-2.4,4.053,4.053,0,0,1-18-.99,4.2,4.2,0,0,1-19.452-.1a5.234,5.234,0,0,1-1.836.312A5.234,5.234,0,0,1-23.124-.1,4.2,4.2,0,0,1-24.576-.99,4.053,4.053,0,0,1-25.53-2.4,4.8,4.8,0,0,1-25.872-4.248Zm1.944,0a3.116,3.116,0,0,0,.186,1.1,2.515,2.515,0,0,0,.534.864,2.437,2.437,0,0,0,.834.57,2.78,2.78,0,0,0,1.086.2,2.78,2.78,0,0,0,1.086-.2,2.437,2.437,0,0,0,.834-.57,2.515,2.515,0,0,0,.534-.864,3.116,3.116,0,0,0,.186-1.1,3.13,3.13,0,0,0-.186-1.092,2.5,2.5,0,0,0-.534-.87,2.437,2.437,0,0,0-.834-.57,2.78,2.78,0,0,0-1.086-.2,2.78,2.78,0,0,0-1.086.2,2.437,2.437,0,0,0-.834.57,2.5,2.5,0,0,0-.534.87A3.13,3.13,0,0,0-23.928-4.248Zm15.66.972A4.1,4.1,0,0,1-8.5-1.884a3.063,3.063,0,0,1-.678,1.1A3.106,3.106,0,0,1-10.3-.048a4.213,4.213,0,0,1-1.548.264A4.249,4.249,0,0,1-13.4-.048,3.106,3.106,0,0,1-14.526-.78a3.063,3.063,0,0,1-.678-1.1,4.1,4.1,0,0,1-.228-1.392V-8.5h1.872v5.148a2.069,2.069,0,0,0,.126.732,1.749,1.749,0,0,0,.354.582,1.607,1.607,0,0,0,.546.384,1.714,1.714,0,0,0,.69.138,1.672,1.672,0,0,0,.684-.138,1.623,1.623,0,0,0,.54-.384,1.749,1.749,0,0,0,.354-.582,2.069,2.069,0,0,0,.126-.732V-8.5h1.872ZM-6.54-8.5h3.288a5.8,5.8,0,0,1,1.23.126A2.918,2.918,0,0,1-1-7.95a2.093,2.093,0,0,1,.7.792A2.682,2.682,0,0,1-.048-5.916a2.494,2.494,0,0,1-.468,1.53,2.107,2.107,0,0,1-1.368.8L.276,0H-1.968L-3.744-3.4h-.924V0H-6.54ZM-4.668-4.98h1.1q.252,0,.534-.018a1.673,1.673,0,0,0,.51-.108.882.882,0,0,0,.378-.282.859.859,0,0,0,.15-.54.9.9,0,0,0-.132-.516.88.88,0,0,0-.336-.294,1.491,1.491,0,0,0-.468-.138,3.817,3.817,0,0,0-.516-.036H-4.668ZM8.988-6.42a1.333,1.333,0,0,0-.618-.426,2.215,2.215,0,0,0-.738-.138,1.934,1.934,0,0,0-.42.048,1.61,1.61,0,0,0-.408.15.889.889,0,0,0-.312.27.684.684,0,0,0-.12.408.676.676,0,0,0,.288.588,2.727,2.727,0,0,0,.726.348q.438.144.942.288a3.881,3.881,0,0,1,.942.408A2.23,2.23,0,0,1,10-3.768a2.158,2.158,0,0,1,.288,1.188,2.731,2.731,0,0,1-.264,1.236,2.508,2.508,0,0,1-.714.876A3.038,3.038,0,0,1,8.262.048,4.587,4.587,0,0,1,7.008.216,4.549,4.549,0,0,1,5.472-.036a3.849,3.849,0,0,1-1.32-.816L5.484-2.316a1.944,1.944,0,0,0,.726.594,2.072,2.072,0,0,0,.906.21,2.05,2.05,0,0,0,.462-.054A1.5,1.5,0,0,0,8-1.728.906.906,0,0,0,8.3-2a.688.688,0,0,0,.114-.4.718.718,0,0,0-.294-.606,2.71,2.71,0,0,0-.738-.378Q6.936-3.54,6.42-3.7a4.311,4.311,0,0,1-.96-.42,2.314,2.314,0,0,1-.738-.7,1.991,1.991,0,0,1-.294-1.14,2.552,2.552,0,0,1,.27-1.2,2.6,2.6,0,0,1,.72-.864,3.13,3.13,0,0,1,1.038-.522,4.249,4.249,0,0,1,1.212-.174,4.765,4.765,0,0,1,1.392.2,3.211,3.211,0,0,1,1.212.684ZM11.676-8.5h1.872v3.168h3.636V-8.5h1.872V0H17.184V-3.672H13.548V0H11.676Zm11.9,0h1.548l3.7,8.5H26.712L25.98-1.8h-3.3L21.972,0H19.908Zm.72,2.472-1.032,2.64h2.076ZM28.092-8.5h2.136l2.1,5.568h.024L34.488-8.5h2L32.988,0h-1.5Zm9.264,0h1.872V0H37.356Zm3.576,0h2.544l3.612,5.9h.024V-8.5h1.872V0H46.536L42.828-6.048H42.8V0H40.932ZM58.4-.6a6.777,6.777,0,0,1-1.728.624A8.775,8.775,0,0,1,54.84.216,5.234,5.234,0,0,1,53-.1,4.2,4.2,0,0,1,51.552-.99,4.053,4.053,0,0,1,50.6-2.4a4.8,4.8,0,0,1-.342-1.848A4.8,4.8,0,0,1,50.6-6.1a4.053,4.053,0,0,1,.954-1.41A4.2,4.2,0,0,1,53-8.4a5.234,5.234,0,0,1,1.836-.312,6.8,6.8,0,0,1,1.878.246,3.677,3.677,0,0,1,1.506.846L56.9-6.18a2.63,2.63,0,0,0-.864-.6,3.079,3.079,0,0,0-1.2-.2,2.78,2.78,0,0,0-1.086.2,2.437,2.437,0,0,0-.834.57,2.5,2.5,0,0,0-.534.87A3.13,3.13,0,0,0,52.2-4.248a3.116,3.116,0,0,0,.186,1.1,2.515,2.515,0,0,0,.534.864,2.437,2.437,0,0,0,.834.57,2.78,2.78,0,0,0,1.086.2A3.578,3.578,0,0,0,55.9-1.65a3.985,3.985,0,0,0,.708-.282v-1.38H55.08V-5.04H58.4ZM69.156-6.288a1.836,1.836,0,0,0-.678-.516,2.256,2.256,0,0,0-.93-.18,2.341,2.341,0,0,0-.978.2,2.34,2.34,0,0,0-.78.57,2.657,2.657,0,0,0-.516.87,3.13,3.13,0,0,0-.186,1.092,3.116,3.116,0,0,0,.186,1.1,2.729,2.729,0,0,0,.51.864,2.311,2.311,0,0,0,.762.57,2.2,2.2,0,0,0,.942.2,2.111,2.111,0,0,0,1.02-.24,2.03,2.03,0,0,0,.732-.672L70.8-1.26A3.249,3.249,0,0,1,69.432-.144a4.233,4.233,0,0,1-1.7.36A5.234,5.234,0,0,1,65.892-.1,4.2,4.2,0,0,1,64.44-.99a4.053,4.053,0,0,1-.954-1.41,4.8,4.8,0,0,1-.342-1.848A4.8,4.8,0,0,1,63.486-6.1a4.053,4.053,0,0,1,.954-1.41A4.2,4.2,0,0,1,65.892-8.4a5.234,5.234,0,0,1,1.836-.312,4.5,4.5,0,0,1,.75.066,4.053,4.053,0,0,1,.768.21,3.423,3.423,0,0,1,.726.384,2.887,2.887,0,0,1,.624.588ZM71.82-8.5h3.288a5.8,5.8,0,0,1,1.23.126,2.918,2.918,0,0,1,1.02.42,2.093,2.093,0,0,1,.7.792,2.682,2.682,0,0,1,.258,1.242,2.494,2.494,0,0,1-.468,1.53,2.107,2.107,0,0,1-1.368.8L78.636,0H76.392L74.616-3.4h-.924V0H71.82ZM73.692-4.98h1.1q.252,0,.534-.018a1.673,1.673,0,0,0,.51-.108.882.882,0,0,0,.378-.282.859.859,0,0,0,.15-.54.9.9,0,0,0-.132-.516.88.88,0,0,0-.336-.294,1.491,1.491,0,0,0-.468-.138,3.817,3.817,0,0,0-.516-.036H73.692ZM79.668-8.5H85.44v1.728h-3.9v1.584h3.684v1.728H81.54v1.728h4.116V0H79.668Zm10.284,0H91.5L95.2,0H93.084l-.732-1.8h-3.3L88.344,0H86.28Zm.72,2.472L89.64-3.384h2.076ZM96.048-8.5H98.88l1.956,5.544h.024L102.828-8.5h2.82V0h-1.872V-6.516h-.024L101.52,0h-1.428L97.944-6.516H97.92V0H96.048Zm-125.9,26.368A9.058,9.058,0,0,1-31.164,15.3a8.967,8.967,0,0,1-.444-2.76A8.757,8.757,0,0,1-31.146,9.7a9.165,9.165,0,0,1,1.29-2.484l.648.48A7.814,7.814,0,0,0-30.36,9.988a8.565,8.565,0,0,0-.384,2.556,8.851,8.851,0,0,0,.1,1.344,7.466,7.466,0,0,0,.288,1.206,8.094,8.094,0,0,0,.48,1.146q.288.564.672,1.176Zm1.488-4.68a3.056,3.056,0,0,1,.228-1.2,2.839,2.839,0,0,1,.624-.93,2.773,2.773,0,0,1,.948-.606,3.265,3.265,0,0,1,1.2-.216,3.265,3.265,0,0,1,1.2.216,2.773,2.773,0,0,1,.948.606,2.839,2.839,0,0,1,.624.93,3.056,3.056,0,0,1,.228,1.2,3.056,3.056,0,0,1-.228,1.2,2.839,2.839,0,0,1-.624.93,2.773,2.773,0,0,1-.948.606,3.265,3.265,0,0,1-1.2.216,3.265,3.265,0,0,1-1.2-.216,2.773,2.773,0,0,1-.948-.606,2.839,2.839,0,0,1-.624-.93A3.056,3.056,0,0,1-28.368,13.192Zm1.008,0a2.38,2.38,0,0,0,.138.822,1.915,1.915,0,0,0,.4.66,1.913,1.913,0,0,0,.63.444,2.01,2.01,0,0,0,.822.162,2.01,2.01,0,0,0,.822-.162,1.913,1.913,0,0,0,.63-.444,1.915,1.915,0,0,0,.4-.66,2.38,2.38,0,0,0,.138-.822,2.38,2.38,0,0,0-.138-.822,1.915,1.915,0,0,0-.4-.66,1.913,1.913,0,0,0-.63-.444,2.01,2.01,0,0,0-.822-.162,2.01,2.01,0,0,0-.822.162,1.913,1.913,0,0,0-.63.444,1.915,1.915,0,0,0-.4.66A2.38,2.38,0,0,0-27.36,13.192Zm6.12,0a3.056,3.056,0,0,1,.228-1.2,2.839,2.839,0,0,1,.624-.93,2.773,2.773,0,0,1,.948-.606,3.265,3.265,0,0,1,1.2-.216,3.265,3.265,0,0,1,1.2.216,2.773,2.773,0,0,1,.948.606,2.839,2.839,0,0,1,.624.93,3.056,3.056,0,0,1,.228,1.2,3.056,3.056,0,0,1-.228,1.2,2.839,2.839,0,0,1-.624.93,2.773,2.773,0,0,1-.948.606,3.265,3.265,0,0,1-1.2.216,3.265,3.265,0,0,1-1.2-.216,2.773,2.773,0,0,1-.948-.606,2.839,2.839,0,0,1-.624-.93A3.056,3.056,0,0,1-21.24,13.192Zm1.008,0a2.38,2.38,0,0,0,.138.822,1.915,1.915,0,0,0,.4.66,1.913,1.913,0,0,0,.63.444,2.01,2.01,0,0,0,.822.162,2.01,2.01,0,0,0,.822-.162,1.913,1.913,0,0,0,.63-.444,1.915,1.915,0,0,0,.4-.66,2.38,2.38,0,0,0,.138-.822,2.38,2.38,0,0,0-.138-.822,1.915,1.915,0,0,0-.4-.66,1.913,1.913,0,0,0-.63-.444,2.01,2.01,0,0,0-.822-.162,2.01,2.01,0,0,0-.822.162,1.913,1.913,0,0,0-.63.444,1.915,1.915,0,0,0-.4.66A2.38,2.38,0,0,0-20.232,13.192Zm6.12,0a3.056,3.056,0,0,1,.228-1.2,2.839,2.839,0,0,1,.624-.93,2.773,2.773,0,0,1,.948-.606,3.265,3.265,0,0,1,1.2-.216,3.265,3.265,0,0,1,1.2.216,2.773,2.773,0,0,1,.948.606,2.839,2.839,0,0,1,.624.93,3.056,3.056,0,0,1,.228,1.2,3.056,3.056,0,0,1-.228,1.2,2.839,2.839,0,0,1-.624.93,2.773,2.773,0,0,1-.948.606,3.265,3.265,0,0,1-1.2.216,3.265,3.265,0,0,1-1.2-.216,2.773,2.773,0,0,1-.948-.606,2.839,2.839,0,0,1-.624-.93A3.056,3.056,0,0,1-14.112,13.192Zm1.008,0a2.38,2.38,0,0,0,.138.822,1.915,1.915,0,0,0,.4.66,1.913,1.913,0,0,0,.63.444,2.01,2.01,0,0,0,.822.162,2.01,2.01,0,0,0,.822-.162,1.913,1.913,0,0,0,.63-.444,1.915,1.915,0,0,0,.4-.66,2.38,2.38,0,0,0,.138-.822,2.38,2.38,0,0,0-.138-.822,1.915,1.915,0,0,0-.4-.66,1.913,1.913,0,0,0-.63-.444,2.01,2.01,0,0,0-.822-.162,2.01,2.01,0,0,0-.822.162,1.913,1.913,0,0,0-.63.444,1.915,1.915,0,0,0-.4.66A2.38,2.38,0,0,0-13.1,13.192Zm10.26-2.016H-4.068v-.792h1.224V9.124a4.29,4.29,0,0,1,.1-.942,1.914,1.914,0,0,1,.33-.738A1.561,1.561,0,0,1-1.8,6.958a2.294,2.294,0,0,1,.948-.174,2.215,2.215,0,0,1,.384.036,1.106,1.106,0,0,1,.336.108l-.132.84A1.893,1.893,0,0,0-.9,7.648a1.071,1.071,0,0,0-.564.126.784.784,0,0,0-.306.348,1.48,1.48,0,0,0-.12.534q-.018.312-.018.672v1.056H-.54v.792H-1.908V16h-.936ZM.132,13.192a3.056,3.056,0,0,1,.228-1.2,2.839,2.839,0,0,1,.624-.93,2.773,2.773,0,0,1,.948-.606,3.265,3.265,0,0,1,1.2-.216,3.265,3.265,0,0,1,1.2.216,2.773,2.773,0,0,1,.948.606,2.839,2.839,0,0,1,.624.93,3.272,3.272,0,0,1,0,2.4,2.839,2.839,0,0,1-.624.93,2.773,2.773,0,0,1-.948.606,3.265,3.265,0,0,1-1.2.216,3.265,3.265,0,0,1-1.2-.216,2.773,2.773,0,0,1-.948-.606,2.839,2.839,0,0,1-.624-.93A3.056,3.056,0,0,1,.132,13.192Zm1.008,0a2.38,2.38,0,0,0,.138.822,1.9,1.9,0,0,0,1.032,1.1,2.01,2.01,0,0,0,.822.162,2.01,2.01,0,0,0,.822-.162,1.9,1.9,0,0,0,1.032-1.1,2.517,2.517,0,0,0,0-1.644,1.9,1.9,0,0,0-1.032-1.1,2.01,2.01,0,0,0-.822-.162,2.01,2.01,0,0,0-.822.162,1.9,1.9,0,0,0-1.032,1.1A2.38,2.38,0,0,0,1.14,13.192ZM7.512,11.1a2.638,2.638,0,0,1,1.026-.654,3.594,3.594,0,0,1,1.206-.21,2.376,2.376,0,0,1,1.8.588,2.532,2.532,0,0,1,.552,1.788v2.412q0,.24.024.5t.06.474h-.9a1.966,1.966,0,0,1-.054-.426q-.006-.234-.006-.414H11.2a2.2,2.2,0,0,1-.738.708,2.126,2.126,0,0,1-1.11.276,2.937,2.937,0,0,1-.81-.108,2.024,2.024,0,0,1-.66-.318,1.572,1.572,0,0,1-.45-.522,1.5,1.5,0,0,1-.168-.72,1.563,1.563,0,0,1,.36-1.092,2.185,2.185,0,0,1,.894-.588,4.4,4.4,0,0,1,1.152-.24q.618-.048,1.134-.048h.36V12.34a1.147,1.147,0,0,0-.366-.924A1.534,1.534,0,0,0,9.768,11.1a2.741,2.741,0,0,0-.894.15,2.147,2.147,0,0,0-.774.462Zm2.712,2.2a3.359,3.359,0,0,0-1.428.252.856.856,0,0,0-.528.828.816.816,0,0,0,.354.75,1.631,1.631,0,0,0,.882.222,1.723,1.723,0,0,0,.714-.138,1.5,1.5,0,0,0,.51-.366,1.579,1.579,0,0,0,.312-.534,2.179,2.179,0,0,0,.12-.654V13.3Zm3.588-1.584q0-.384-.024-.72t-.024-.612h.888q0,.228.012.456t.012.468H14.7a1.62,1.62,0,0,1,.27-.4,1.946,1.946,0,0,1,.414-.342,2.213,2.213,0,0,1,.54-.24,2.245,2.245,0,0,1,.648-.09,2.2,2.2,0,0,1,.762.114,1.858,1.858,0,0,1,.51.276,1.352,1.352,0,0,1,.318.348q.114.186.186.33a2.6,2.6,0,0,1,.72-.786,1.819,1.819,0,0,1,1.056-.282,2.743,2.743,0,0,1,1.008.162,1.6,1.6,0,0,1,.66.468,1.847,1.847,0,0,1,.36.744,4.09,4.09,0,0,1,.108.978V16h-.936V12.64a2.647,2.647,0,0,0-.06-.564,1.3,1.3,0,0,0-.216-.492,1.129,1.129,0,0,0-.42-.348,1.5,1.5,0,0,0-.672-.132,1.347,1.347,0,0,0-.564.12,1.416,1.416,0,0,0-.462.336,1.577,1.577,0,0,0-.312.522,1.929,1.929,0,0,0-.114.678V16h-.936V12.82a2.567,2.567,0,0,0-.252-1.326.911.911,0,0,0-.828-.39,1.825,1.825,0,0,0-.786.156,1.394,1.394,0,0,0-.54.444,1.991,1.991,0,0,0-.312.684,3.511,3.511,0,0,0-.1.876V16h-.936ZM26.1,17.284q-.144.36-.294.654a1.975,1.975,0,0,1-.36.5,1.438,1.438,0,0,1-.5.324,1.98,1.98,0,0,1-.714.114,3.967,3.967,0,0,1-.426-.024,1.208,1.208,0,0,1-.414-.12l.12-.816a1.106,1.106,0,0,0,.3.078,3.177,3.177,0,0,0,.36.018.838.838,0,0,0,.672-.252,2.208,2.208,0,0,0,.372-.672l.384-1.056-2.328-5.652H24.36l1.74,4.4h.024l1.668-4.4h1.02ZM29.856,7.216a9.058,9.058,0,0,1,1.308,2.568,8.967,8.967,0,0,1,.444,2.76,8.757,8.757,0,0,1-.462,2.844,9.165,9.165,0,0,1-1.29,2.484l-.648-.48A7.814,7.814,0,0,0,30.36,15.1a8.565,8.565,0,0,0,.384-2.556,8.851,8.851,0,0,0-.1-1.344,7.466,7.466,0,0,0-.288-1.206,8.094,8.094,0,0,0-.48-1.146q-.288-.564-.672-1.176Z" transform="translate(105.648 8.712)" fill="#fff"/>
</svg>
