<svg xmlns="http://www.w3.org/2000/svg" width="204.288" height="27.592" viewBox="0 0 204.288 27.592">
  <path id="Path_65" data-name="Path 65" d="M-94.11-.6a6.777,6.777,0,0,1-1.728.624,8.775,8.775,0,0,1-1.836.192A5.234,5.234,0,0,1-99.51-.1a4.2,4.2,0,0,1-1.452-.894,4.053,4.053,0,0,1-.954-1.41,4.8,4.8,0,0,1-.342-1.848,4.8,4.8,0,0,1,.342-1.848,4.053,4.053,0,0,1,.954-1.41A4.2,4.2,0,0,1-99.51-8.4a5.234,5.234,0,0,1,1.836-.312,6.8,6.8,0,0,1,1.878.246,3.677,3.677,0,0,1,1.506.846l-1.32,1.44a2.63,2.63,0,0,0-.864-.6,3.079,3.079,0,0,0-1.2-.2,2.78,2.78,0,0,0-1.086.2,2.437,2.437,0,0,0-.834.57,2.5,2.5,0,0,0-.534.87,3.13,3.13,0,0,0-.186,1.092,3.116,3.116,0,0,0,.186,1.1,2.515,2.515,0,0,0,.534.864,2.437,2.437,0,0,0,.834.57,2.78,2.78,0,0,0,1.086.2,3.578,3.578,0,0,0,1.056-.138,3.985,3.985,0,0,0,.708-.282v-1.38h-1.524V-5.04h3.324Zm1.644-7.9h3.288a5.8,5.8,0,0,1,1.23.126,2.918,2.918,0,0,1,1.02.42,2.093,2.093,0,0,1,.7.792,2.682,2.682,0,0,1,.258,1.242,2.494,2.494,0,0,1-.468,1.53,2.107,2.107,0,0,1-1.368.8L-85.65,0h-2.244L-89.67-3.4h-.924V0h-1.872Zm1.872,3.516h1.1q.252,0,.534-.018a1.673,1.673,0,0,0,.51-.108.882.882,0,0,0,.378-.282.859.859,0,0,0,.15-.54.9.9,0,0,0-.132-.516.88.88,0,0,0-.336-.294,1.491,1.491,0,0,0-.468-.138,3.817,3.817,0,0,0-.516-.036h-1.224Zm8.7-3.516h1.548l3.7,8.5h-2.112l-.732-1.8h-3.3L-83.5,0h-2.064Zm.72,2.472-1.032,2.64h2.076ZM-75.8-8.5h3.168a8.009,8.009,0,0,1,1.11.078,3.032,3.032,0,0,1,1,.312,1.919,1.919,0,0,1,.72.654,2,2,0,0,1,.276,1.116,1.782,1.782,0,0,1-.4,1.194,2.21,2.21,0,0,1-1.062.678v.024a2.424,2.424,0,0,1,.762.234,2.035,2.035,0,0,1,.588.444,1.891,1.891,0,0,1,.378.63,2.213,2.213,0,0,1,.132.768,2.042,2.042,0,0,1-.288,1.122,2.264,2.264,0,0,1-.744.726,3.263,3.263,0,0,1-1.026.4A5.492,5.492,0,0,1-72.318,0H-75.8Zm1.872,3.4h1.356a1.906,1.906,0,0,0,.426-.048,1.178,1.178,0,0,0,.378-.156.812.812,0,0,0,.27-.288.863.863,0,0,0,.1-.432.784.784,0,0,0-.114-.438.793.793,0,0,0-.294-.27,1.4,1.4,0,0,0-.408-.138,2.449,2.449,0,0,0-.444-.042h-1.272Zm0,3.516h1.68a2.068,2.068,0,0,0,.438-.048,1.159,1.159,0,0,0,.4-.168.955.955,0,0,0,.294-.312A.9.9,0,0,0-71-2.58a.75.75,0,0,0-.15-.486.951.951,0,0,0-.378-.282,1.936,1.936,0,0,0-.492-.132,3.655,3.655,0,0,0-.492-.036h-1.416Zm5.9-6.912h3.168a8.009,8.009,0,0,1,1.11.078,3.032,3.032,0,0,1,1,.312,1.919,1.919,0,0,1,.72.654,2,2,0,0,1,.276,1.116,1.782,1.782,0,0,1-.4,1.194,2.21,2.21,0,0,1-1.062.678v.024a2.424,2.424,0,0,1,.762.234,2.035,2.035,0,0,1,.588.444,1.891,1.891,0,0,1,.378.63,2.213,2.213,0,0,1,.132.768,2.042,2.042,0,0,1-.288,1.122,2.264,2.264,0,0,1-.744.726,3.263,3.263,0,0,1-1.026.4A5.492,5.492,0,0,1-64.542,0h-3.48Zm1.872,3.4h1.356a1.906,1.906,0,0,0,.426-.048A1.178,1.178,0,0,0-63.99-5.3a.812.812,0,0,0,.27-.288.863.863,0,0,0,.1-.432.784.784,0,0,0-.114-.438.793.793,0,0,0-.294-.27,1.4,1.4,0,0,0-.408-.138,2.449,2.449,0,0,0-.444-.042H-66.15Zm0,3.516h1.68a2.068,2.068,0,0,0,.438-.048,1.159,1.159,0,0,0,.4-.168.955.955,0,0,0,.294-.312.9.9,0,0,0,.114-.468.75.75,0,0,0-.15-.486.951.951,0,0,0-.378-.282,1.936,1.936,0,0,0-.492-.132,3.655,3.655,0,0,0-.492-.036H-66.15ZM-60.27-8.5H-58.4V0H-60.27Zm3.576,0h2.544l3.612,5.9h.024V-8.5h1.872V0H-51.09L-54.8-6.048h-.024V0h-1.872ZM-39.222-.6A6.777,6.777,0,0,1-40.95.024a8.775,8.775,0,0,1-1.836.192A5.234,5.234,0,0,1-44.622-.1,4.2,4.2,0,0,1-46.074-.99a4.053,4.053,0,0,1-.954-1.41,4.8,4.8,0,0,1-.342-1.848A4.8,4.8,0,0,1-47.028-6.1a4.053,4.053,0,0,1,.954-1.41A4.2,4.2,0,0,1-44.622-8.4a5.234,5.234,0,0,1,1.836-.312,6.8,6.8,0,0,1,1.878.246A3.677,3.677,0,0,1-39.4-7.62l-1.32,1.44a2.63,2.63,0,0,0-.864-.6,3.079,3.079,0,0,0-1.2-.2,2.78,2.78,0,0,0-1.086.2,2.437,2.437,0,0,0-.834.57,2.5,2.5,0,0,0-.534.87,3.13,3.13,0,0,0-.186,1.092,3.116,3.116,0,0,0,.186,1.1,2.515,2.515,0,0,0,.534.864,2.437,2.437,0,0,0,.834.57,2.78,2.78,0,0,0,1.086.2A3.578,3.578,0,0,0-41.73-1.65a3.985,3.985,0,0,0,.708-.282v-1.38h-1.524V-5.04h3.324Zm7.992-7.9h1.548l3.7,8.5H-28.1l-.732-1.8h-3.3L-32.838,0H-34.9Zm.72,2.472-1.032,2.64h2.076Zm13.128-.4A1.333,1.333,0,0,0-18-6.846a2.215,2.215,0,0,0-.738-.138,1.934,1.934,0,0,0-.42.048,1.61,1.61,0,0,0-.408.15.889.889,0,0,0-.312.27.684.684,0,0,0-.12.408.676.676,0,0,0,.288.588,2.727,2.727,0,0,0,.726.348q.438.144.942.288a3.881,3.881,0,0,1,.942.408,2.23,2.23,0,0,1,.726.708,2.158,2.158,0,0,1,.288,1.188,2.731,2.731,0,0,1-.264,1.236,2.508,2.508,0,0,1-.714.876,3.038,3.038,0,0,1-1.044.516,4.587,4.587,0,0,1-1.254.168A4.549,4.549,0,0,1-20.9-.036a3.849,3.849,0,0,1-1.32-.816l1.332-1.464a1.944,1.944,0,0,0,.726.594,2.072,2.072,0,0,0,.906.21,2.05,2.05,0,0,0,.462-.054,1.5,1.5,0,0,0,.42-.162.906.906,0,0,0,.3-.276.688.688,0,0,0,.114-.4.718.718,0,0,0-.294-.606,2.71,2.71,0,0,0-.738-.378q-.444-.156-.96-.312a4.311,4.311,0,0,1-.96-.42,2.314,2.314,0,0,1-.738-.7,1.991,1.991,0,0,1-.294-1.14,2.552,2.552,0,0,1,.27-1.2,2.6,2.6,0,0,1,.72-.864,3.13,3.13,0,0,1,1.038-.522A4.249,4.249,0,0,1-18.7-8.712a4.765,4.765,0,0,1,1.392.2,3.211,3.211,0,0,1,1.212.684ZM-14.694-8.5h2.544l3.612,5.9h.024V-8.5h1.872V0H-9.09L-12.8-6.048h-.024V0h-1.872Zm12.576,0H-.57L3.126,0H1.014L.282-1.8h-3.3L-3.726,0H-5.79Zm.72,2.472L-2.43-3.384H-.354ZM9.534-6.288A1.836,1.836,0,0,0,8.856-6.8a2.256,2.256,0,0,0-.93-.18,2.341,2.341,0,0,0-.978.2,2.34,2.34,0,0,0-.78.57,2.657,2.657,0,0,0-.516.87,3.13,3.13,0,0,0-.186,1.092,3.116,3.116,0,0,0,.186,1.1,2.729,2.729,0,0,0,.51.864,2.311,2.311,0,0,0,.762.57,2.2,2.2,0,0,0,.942.2,2.111,2.111,0,0,0,1.02-.24,2.03,2.03,0,0,0,.732-.672l1.56,1.164A3.249,3.249,0,0,1,9.81-.144a4.233,4.233,0,0,1-1.7.36A5.234,5.234,0,0,1,6.27-.1,4.2,4.2,0,0,1,4.818-.99,4.053,4.053,0,0,1,3.864-2.4a4.8,4.8,0,0,1-.342-1.848A4.8,4.8,0,0,1,3.864-6.1a4.053,4.053,0,0,1,.954-1.41A4.2,4.2,0,0,1,6.27-8.4a5.234,5.234,0,0,1,1.836-.312,4.5,4.5,0,0,1,.75.066,4.052,4.052,0,0,1,.768.21,3.423,3.423,0,0,1,.726.384,2.888,2.888,0,0,1,.624.588ZM12.27-8.5h1.872v3.528l3.3-3.528H19.89L16.11-4.548,20.214,0H17.6L14.142-4.032V0H12.27Zm14.94,0h1.548l3.7,8.5H30.342L29.61-1.8h-3.3L25.6,0H23.538Zm.72,2.472L26.9-3.384h2.076Zm5.916-.816H31.422V-8.5h6.72V-6.84H35.718V0H33.846Zm8.8-1.656h1.872v3.168H48.15V-8.5h1.872V0H48.15V-3.672H44.514V0H42.642Zm11.9,0h1.548L59.79,0H57.678l-.732-1.8h-3.3L52.938,0H50.874Zm.72,2.472-1.032,2.64H56.31ZM60.714-8.5h1.872v6.768h3.468V0h-5.34Zm6.444,0h5.7v1.728H69.03V-5.04h3.54v1.728H69.03V0H67.158ZM75.846-6.84H73.422V-8.5h6.72V-6.84H77.718V0H75.846ZM81.066-8.5h1.872V0H81.066Zm3.576,0h2.832L89.43-2.952h.024L91.422-8.5h2.82V0H92.37V-6.516h-.024L90.114,0H88.686L86.538-6.516h-.024V0H84.642Zm11.4,0h5.772v1.728h-3.9v1.584H101.6v1.728H97.914v1.728h4.116V0H96.042ZM-13.038,17.872A9.058,9.058,0,0,1-14.346,15.3a8.967,8.967,0,0,1-.444-2.76A8.757,8.757,0,0,1-14.328,9.7a9.165,9.165,0,0,1,1.29-2.484l.648.48a7.814,7.814,0,0,0-1.152,2.292,8.565,8.565,0,0,0-.384,2.556,8.851,8.851,0,0,0,.1,1.344,7.466,7.466,0,0,0,.288,1.206,8.094,8.094,0,0,0,.48,1.146q.288.564.672,1.176ZM-6.558,15h-.024a2.142,2.142,0,0,1-.834.81,2.6,2.6,0,0,1-1.326.33,2.763,2.763,0,0,1-1.1-.222,2.693,2.693,0,0,1-.894-.618,2.9,2.9,0,0,1-.594-.936,3.138,3.138,0,0,1-.216-1.176,3.138,3.138,0,0,1,.216-1.176,2.847,2.847,0,0,1,.6-.936,2.686,2.686,0,0,1,.93-.618A3.173,3.173,0,0,1-8.6,10.24a2.5,2.5,0,0,1,1.122.252,2.76,2.76,0,0,1,.894.708h.024V6.928h.936V16h-.936Zm0-1.812A2.38,2.38,0,0,0-6.7,12.37a1.915,1.915,0,0,0-.4-.66,1.913,1.913,0,0,0-.63-.444A2.01,2.01,0,0,0-8.55,11.1a2.01,2.01,0,0,0-.822.162,1.913,1.913,0,0,0-.63.444,1.915,1.915,0,0,0-.4.66,2.38,2.38,0,0,0-.138.822,2.38,2.38,0,0,0,.138.822,1.915,1.915,0,0,0,.4.66,1.913,1.913,0,0,0,.63.444,2.01,2.01,0,0,0,.822.162,2.01,2.01,0,0,0,.822-.162,1.913,1.913,0,0,0,.63-.444,1.915,1.915,0,0,0,.4-.66A2.38,2.38,0,0,0-6.558,13.192Zm2.76-2.808h.936V16H-3.8Zm-.216-2.2a.667.667,0,0,1,.2-.48.651.651,0,0,1,.486-.2.651.651,0,0,1,.486.2.667.667,0,0,1,.2.48.666.666,0,0,1-.192.492.666.666,0,0,1-.492.192.666.666,0,0,1-.492-.192A.666.666,0,0,1-4.014,8.188ZM-1,11.716q0-.384-.024-.72t-.024-.612h.888q0,.228.012.456t.012.468h.024a1.62,1.62,0,0,1,.27-.4A1.946,1.946,0,0,1,.57,10.57a2.213,2.213,0,0,1,.54-.24,2.245,2.245,0,0,1,.648-.09,2.465,2.465,0,0,1,.954.168,1.791,1.791,0,0,1,.666.468,1.9,1.9,0,0,1,.39.726,3.268,3.268,0,0,1,.126.93V16H2.958V12.628a1.8,1.8,0,0,0-.312-1.116,1.146,1.146,0,0,0-.972-.408,1.825,1.825,0,0,0-.786.156,1.394,1.394,0,0,0-.54.444,1.991,1.991,0,0,0-.312.684,3.511,3.511,0,0,0-.1.876V16H-1Zm12.276,4.032a3.192,3.192,0,0,1-.786,2.334,3.052,3.052,0,0,1-2.274.8,4.384,4.384,0,0,1-1.494-.24,3.529,3.529,0,0,1-1.266-.828l.672-.768a3.261,3.261,0,0,0,.942.726,2.555,2.555,0,0,0,1.146.246,2.537,2.537,0,0,0,1.038-.186,1.642,1.642,0,0,0,.654-.5,1.92,1.92,0,0,0,.336-.726,3.708,3.708,0,0,0,.1-.852v-.72h-.024a2.033,2.033,0,0,1-.876.792,2.585,2.585,0,0,1-1.1.252,3.3,3.3,0,0,1-1.212-.216,2.82,2.82,0,0,1-.948-.6,2.654,2.654,0,0,1-.612-.912,3.014,3.014,0,0,1-.216-1.152,3.368,3.368,0,0,1,.216-1.236,2.587,2.587,0,0,1,.606-.93,2.657,2.657,0,0,1,.942-.582,3.508,3.508,0,0,1,1.224-.2,2.571,2.571,0,0,1,.576.066,2.4,2.4,0,0,1,.558.2,2,2,0,0,1,.486.348,1.9,1.9,0,0,1,.36.486h.024v-.96h.936Zm-4.92-2.556a1.993,1.993,0,0,0,1.212,1.86,1.911,1.911,0,0,0,.768.156,2.05,2.05,0,0,0,.852-.168,1.885,1.885,0,0,0,1.02-1.1,2.264,2.264,0,0,0,.132-.774,2.325,2.325,0,0,0-.144-.834,1.926,1.926,0,0,0-.408-.654,1.8,1.8,0,0,0-.636-.426,2.162,2.162,0,0,0-.816-.15,1.979,1.979,0,0,0-.81.162,1.848,1.848,0,0,0-.624.444,2.045,2.045,0,0,0-.4.66A2.29,2.29,0,0,0,6.354,13.192Zm6.684-5.976a9.058,9.058,0,0,1,1.308,2.568,8.967,8.967,0,0,1,.444,2.76,8.757,8.757,0,0,1-.462,2.844,9.165,9.165,0,0,1-1.29,2.484l-.648-.48A7.814,7.814,0,0,0,13.542,15.1a8.565,8.565,0,0,0,.384-2.556,8.851,8.851,0,0,0-.1-1.344,7.466,7.466,0,0,0-.288-1.206,8.094,8.094,0,0,0-.48-1.146q-.288-.564-.672-1.176Z" transform="translate(102.258 8.712)" fill="#fff"/>
</svg>
