<svg xmlns="http://www.w3.org/2000/svg" width="100.524" height="11.952" viewBox="0 0 100.524 11.952">
  <path id="Path_59" data-name="Path 59" d="M-48.51,1.872A9.058,9.058,0,0,1-49.818-.7a8.967,8.967,0,0,1-.444-2.76A8.757,8.757,0,0,1-49.8-6.3a9.165,9.165,0,0,1,1.29-2.484l.648.48a7.814,7.814,0,0,0-1.152,2.292A8.565,8.565,0,0,0-49.4-3.456a8.851,8.851,0,0,0,.1,1.344,7.466,7.466,0,0,0,.288,1.206A8.093,8.093,0,0,0-48.534.24q.288.564.672,1.176ZM-46.7-4.284q0-.384-.024-.72t-.024-.612h.888q0,.228.012.456t.012.468h.024a1.62,1.62,0,0,1,.27-.4,1.946,1.946,0,0,1,.414-.342,2.213,2.213,0,0,1,.54-.24,2.245,2.245,0,0,1,.648-.09,2.465,2.465,0,0,1,.954.168,1.791,1.791,0,0,1,.666.468,1.9,1.9,0,0,1,.39.726,3.268,3.268,0,0,1,.126.93V0h-.936V-3.372a1.8,1.8,0,0,0-.312-1.116,1.146,1.146,0,0,0-.972-.408,1.825,1.825,0,0,0-.786.156,1.394,1.394,0,0,0-.54.444,1.991,1.991,0,0,0-.312.684,3.511,3.511,0,0,0-.1.876V0H-46.7Zm6.348,1.476a3.056,3.056,0,0,1,.228-1.2,2.839,2.839,0,0,1,.624-.93,2.773,2.773,0,0,1,.948-.606,3.265,3.265,0,0,1,1.2-.216,3.265,3.265,0,0,1,1.2.216,2.773,2.773,0,0,1,.948.606,2.838,2.838,0,0,1,.624.93,3.056,3.056,0,0,1,.228,1.2,3.056,3.056,0,0,1-.228,1.2,2.838,2.838,0,0,1-.624.93,2.773,2.773,0,0,1-.948.606,3.265,3.265,0,0,1-1.2.216,3.265,3.265,0,0,1-1.2-.216A2.773,2.773,0,0,1-39.5-.678a2.839,2.839,0,0,1-.624-.93A3.056,3.056,0,0,1-40.35-2.808Zm1.008,0a2.38,2.38,0,0,0,.138.822,1.915,1.915,0,0,0,.4.66,1.913,1.913,0,0,0,.63.444,2.01,2.01,0,0,0,.822.162,2.01,2.01,0,0,0,.822-.162,1.913,1.913,0,0,0,.63-.444,1.915,1.915,0,0,0,.4-.66,2.38,2.38,0,0,0,.138-.822A2.38,2.38,0,0,0-35.5-3.63a1.915,1.915,0,0,0-.4-.66,1.913,1.913,0,0,0-.63-.444A2.01,2.01,0,0,0-37.35-4.9a2.01,2.01,0,0,0-.822.162,1.913,1.913,0,0,0-.63.444,1.915,1.915,0,0,0-.4.66A2.38,2.38,0,0,0-39.342-2.808ZM-26.874,0H-27.8l-1.6-4.32h-.024L-30.834,0h-.96l-1.824-5.616h1.032L-31.3-1.3h.024l1.452-4.32h.984l1.476,4.32h.024l1.272-4.32h1.008Zm12.228,0h-.924l-1.6-4.32h-.024L-18.606,0h-.96L-21.39-5.616h1.032l1.284,4.32h.024l1.452-4.32h.984l1.476,4.32h.024l1.272-4.32h1.008Zm7.884-1.02a2.85,2.85,0,0,1-1.1.906A3.5,3.5,0,0,1-9.258.144,2.9,2.9,0,0,1-10.446-.09a2.677,2.677,0,0,1-.894-.63,2.763,2.763,0,0,1-.564-.936,3.32,3.32,0,0,1-.2-1.152A3.218,3.218,0,0,1-11.886-4a2.767,2.767,0,0,1,.6-.936,2.7,2.7,0,0,1,.912-.606A3.014,3.014,0,0,1-9.222-5.76a2.867,2.867,0,0,1,1.08.2,2.341,2.341,0,0,1,.846.576,2.586,2.586,0,0,1,.546.924A3.732,3.732,0,0,1-6.558-2.82v.3h-4.536a1.971,1.971,0,0,0,.174.69,2,2,0,0,0,.39.576,1.8,1.8,0,0,0,.564.39,1.724,1.724,0,0,0,.708.144A2.238,2.238,0,0,0-8.226-.936a2.346,2.346,0,0,0,.756-.636Zm-.8-2.292a1.613,1.613,0,0,0-.468-1.152A1.681,1.681,0,0,0-9.258-4.9a1.812,1.812,0,0,0-1.26.432,1.814,1.814,0,0,0-.576,1.152Zm3.2-2.3h-.912l.8-2.88h1.092ZM-1.77-4.284q0-.384-.024-.72t-.024-.612H-.93q0,.228.012.456t.012.468h.024a1.62,1.62,0,0,1,.27-.4A1.946,1.946,0,0,1-.2-5.43a2.213,2.213,0,0,1,.54-.24A2.245,2.245,0,0,1,.99-5.76a1.547,1.547,0,0,1,.192.012.844.844,0,0,1,.192.048l-.06.948a1.745,1.745,0,0,0-.5-.072,1.422,1.422,0,0,0-1.254.558,2.633,2.633,0,0,0-.39,1.53V0H-1.77ZM7.254-1.02a2.85,2.85,0,0,1-1.1.906A3.5,3.5,0,0,1,4.758.144,2.9,2.9,0,0,1,3.57-.09a2.677,2.677,0,0,1-.894-.63,2.763,2.763,0,0,1-.564-.936,3.32,3.32,0,0,1-.2-1.152A3.218,3.218,0,0,1,2.13-4a2.767,2.767,0,0,1,.6-.936,2.7,2.7,0,0,1,.912-.606A3.014,3.014,0,0,1,4.794-5.76a2.867,2.867,0,0,1,1.08.2,2.341,2.341,0,0,1,.846.576,2.586,2.586,0,0,1,.546.924A3.732,3.732,0,0,1,7.458-2.82v.3H2.922a1.971,1.971,0,0,0,.174.69,2,2,0,0,0,.39.576,1.8,1.8,0,0,0,.564.39,1.724,1.724,0,0,0,.708.144A2.238,2.238,0,0,0,5.79-.936a2.346,2.346,0,0,0,.756-.636Zm-.8-2.292a1.613,1.613,0,0,0-.468-1.152A1.681,1.681,0,0,0,4.758-4.9a1.812,1.812,0,0,0-1.26.432,1.814,1.814,0,0,0-.576,1.152Zm8.868-1.512H13.662v2.808q0,.276.012.51a1.056,1.056,0,0,0,.1.408.645.645,0,0,0,.252.276.931.931,0,0,0,.48.1,1.934,1.934,0,0,0,.42-.048,1.764,1.764,0,0,0,.408-.144l.036.852A2.135,2.135,0,0,1,14.832.1a3.468,3.468,0,0,1-.558.048,2.029,2.029,0,0,1-.8-.132A1.092,1.092,0,0,1,13-.36a1.385,1.385,0,0,1-.222-.594,5.237,5.237,0,0,1-.054-.786V-4.824H11.5v-.792h1.224v-1.6h.936v1.6h1.656ZM16.4-4.9a2.638,2.638,0,0,1,1.026-.654,3.594,3.594,0,0,1,1.206-.21,2.376,2.376,0,0,1,1.8.588,2.532,2.532,0,0,1,.552,1.788V-.972q0,.24.024.5t.06.474h-.9a1.966,1.966,0,0,1-.054-.426q-.006-.234-.006-.414h-.024a2.2,2.2,0,0,1-.738.708,2.126,2.126,0,0,1-1.11.276,2.937,2.937,0,0,1-.81-.108,2.024,2.024,0,0,1-.66-.318,1.572,1.572,0,0,1-.45-.522,1.5,1.5,0,0,1-.168-.72,1.563,1.563,0,0,1,.36-1.092A2.185,2.185,0,0,1,17.4-3.2a4.4,4.4,0,0,1,1.152-.24q.618-.048,1.134-.048h.36V-3.66a1.147,1.147,0,0,0-.366-.924A1.534,1.534,0,0,0,18.654-4.9a2.741,2.741,0,0,0-.894.15,2.147,2.147,0,0,0-.774.462ZM19.11-2.7a3.359,3.359,0,0,0-1.428.252.856.856,0,0,0-.528.828.816.816,0,0,0,.354.75,1.631,1.631,0,0,0,.882.222A1.723,1.723,0,0,0,19.1-.786a1.5,1.5,0,0,0,.51-.366,1.58,1.58,0,0,0,.312-.534,2.179,2.179,0,0,0,.12-.654V-2.7Zm3.672-6.372h.936V0h-.936Zm2.808,0h.936v5.928l2.556-2.472h1.332L27.7-3.06,30.69,0H29.31L26.526-2.952V0H25.59Zm6.084,3.456h.936V0h-.936Zm-.216-2.2a.667.667,0,0,1,.2-.48.651.651,0,0,1,.486-.2.651.651,0,0,1,.486.2.667.667,0,0,1,.2.48.666.666,0,0,1-.192.492.666.666,0,0,1-.492.192.666.666,0,0,1-.492-.192A.666.666,0,0,1,31.458-7.812ZM34.47-4.284q0-.384-.024-.72t-.024-.612h.888q0,.228.012.456t.012.468h.024a1.62,1.62,0,0,1,.27-.4,1.946,1.946,0,0,1,.414-.342,2.213,2.213,0,0,1,.54-.24,2.245,2.245,0,0,1,.648-.09,2.465,2.465,0,0,1,.954.168,1.791,1.791,0,0,1,.666.468,1.9,1.9,0,0,1,.39.726,3.268,3.268,0,0,1,.126.93V0H38.43V-3.372a1.8,1.8,0,0,0-.312-1.116,1.146,1.146,0,0,0-.972-.408,1.825,1.825,0,0,0-.786.156,1.394,1.394,0,0,0-.54.444,1.991,1.991,0,0,0-.312.684,3.511,3.511,0,0,0-.1.876V0H34.47ZM46.746-.252a3.192,3.192,0,0,1-.786,2.334,3.052,3.052,0,0,1-2.274.8,4.384,4.384,0,0,1-1.494-.24,3.529,3.529,0,0,1-1.266-.828l.672-.768a3.261,3.261,0,0,0,.942.726,2.555,2.555,0,0,0,1.146.246,2.537,2.537,0,0,0,1.038-.186,1.642,1.642,0,0,0,.654-.5A1.92,1.92,0,0,0,45.714.6a3.708,3.708,0,0,0,.1-.852v-.72h-.024a2.033,2.033,0,0,1-.876.792,2.585,2.585,0,0,1-1.1.252,3.3,3.3,0,0,1-1.212-.216,2.82,2.82,0,0,1-.948-.6,2.654,2.654,0,0,1-.612-.912,3.014,3.014,0,0,1-.216-1.152,3.368,3.368,0,0,1,.216-1.236,2.587,2.587,0,0,1,.606-.93,2.657,2.657,0,0,1,.942-.582,3.508,3.508,0,0,1,1.224-.2,2.571,2.571,0,0,1,.576.066,2.4,2.4,0,0,1,.558.2,2,2,0,0,1,.486.348,1.9,1.9,0,0,1,.36.486h.024v-.96h.936Zm-4.92-2.556a2.014,2.014,0,0,0,.156.8,2,2,0,0,0,.426.636,2.014,2.014,0,0,0,.63.426,1.911,1.911,0,0,0,.768.156,2.05,2.05,0,0,0,.852-.168,1.9,1.9,0,0,0,.63-.45,1.91,1.91,0,0,0,.39-.648,2.264,2.264,0,0,0,.132-.774,2.325,2.325,0,0,0-.144-.834,1.926,1.926,0,0,0-.408-.654,1.8,1.8,0,0,0-.636-.426,2.162,2.162,0,0,0-.816-.15,1.979,1.979,0,0,0-.81.162,1.848,1.848,0,0,0-.624.444,2.045,2.045,0,0,0-.4.66A2.29,2.29,0,0,0,41.826-2.808ZM48.51-8.784a9.058,9.058,0,0,1,1.308,2.568,8.967,8.967,0,0,1,.444,2.76A8.758,8.758,0,0,1,49.8-.612a9.166,9.166,0,0,1-1.29,2.484l-.648-.48A7.814,7.814,0,0,0,49.014-.9,8.565,8.565,0,0,0,49.4-3.456,8.851,8.851,0,0,0,49.3-4.8a7.466,7.466,0,0,0-.288-1.206,8.094,8.094,0,0,0-.48-1.146q-.288-.564-.672-1.176Z" transform="translate(50.262 9.072)" fill="#fff"/>
</svg>
