<svg xmlns="http://www.w3.org/2000/svg" width="165.312" height="17.808" viewBox="0 0 165.312 17.808">
  <path id="Path_64" data-name="Path 64" d="M-79.752,0h2.976V-14.736h2.88v-2.592h-8.736v2.592h2.88Zm11.064,0V-7.68h3.168V0h2.976V-17.328H-65.52v7.056h-3.168v-7.056h-2.976V0ZM-55.8,0V-17.328h-2.976V0Zm6.456,0V-10.824h.048L-45.5,0h2.592V-17.328H-45.6v9.912h-.048l-3.624-9.912h-2.76V0Zm13.9-6.432h1.9v1.68c0,1.728-.432,2.4-1.632,2.4-1.032,0-1.392-.72-1.392-1.824v-8.9c0-1.464.6-1.9,1.32-1.9,1.176,0,1.7.672,1.7,3.264h2.832v-1.1c0-2.592-1.488-4.752-4.464-4.752a4.109,4.109,0,0,0-4.368,4.44V-4.2c0,2.76,1.632,4.44,3.984,4.44a3.456,3.456,0,0,0,3-1.536l.552,1.3h1.44V-8.784h-4.872Zm16.632-6.936c-.264-2.448-1.7-4.2-4.128-4.2-2.928,0-4.608,1.56-4.608,4.32,0,4.968,6.048,5.88,6.048,9.312a1.529,1.529,0,0,1-1.728,1.584c-.96,0-1.656-.864-1.776-2.616l-2.832.408c.12,2.592,1.7,4.8,4.464,4.8,2.784,0,4.7-1.584,4.7-4.44,0-4.7-6.048-6.12-6.048-9.072,0-1.08.528-1.7,1.488-1.7.672,0,1.464.432,1.584,1.92ZM-8.4,0h2.976V-14.736h2.88v-2.592H-11.28v2.592H-8.4ZM2.664,0V-7.68H5.832V0H8.808V-17.328H5.832v7.056H2.664v-7.056H-.312V0ZM16.032-13.872h.048l1.176,7.44h-2.4ZM14.424-3.84h3.264L18.216,0H21.1L17.9-17.328h-3.7L11.016,0H13.9ZM25.032,0h2.976V-14.736h2.88v-2.592H22.152v2.592h2.88Zm13.9-4.2c0,2.448,1.44,4.44,4.56,4.44s4.56-1.992,4.56-4.44v-8.928c0-2.448-1.44-4.44-4.56-4.44s-4.56,1.992-4.56,4.44ZM41.9-13.056c0-1.3.384-1.92,1.584-1.92s1.584.624,1.584,1.92v8.784c0,1.3-.384,1.92-1.584,1.92S41.9-2.976,41.9-4.272ZM54.1,0V-10.824h.048L57.936,0h2.592V-17.328H57.84v9.912h-.048l-3.624-9.912h-2.76V0ZM71.4,0V-2.592H66.72V-17.328H63.744V0Zm7.68-7.2,3.6-10.128H79.656l-1.992,6.6h-.048l-2.088-6.6H72.5L76.1-7.2V0H79.08Z" transform="translate(82.632 17.568)" fill="#fff"/>
</svg>
