<?xml version="1.0" encoding="utf-8"?>
<!-- Generator: Adobe Illustrator 26.0.1, SVG Export Plug-In . SVG Version: 6.00 Build 0)  -->
<svg version="1.1" id="Layer_1" xmlns="http://www.w3.org/2000/svg" xmlns:xlink="http://www.w3.org/1999/xlink" x="0px" y="0px"
	 viewBox="0 0 459 155" style="enable-background:new 0 0 459 155;" xml:space="preserve">
<style type="text/css">
	.st0{clip-path:url(#SVGID_00000129196814143159767730000003815539300879037849_);fill:#FFFFFF;}
</style>
<g>
	<g>
		<defs>
			<rect id="SVGID_1_" x="0.1" y="0.5" width="458" height="154.5"/>
		</defs>
		<clipPath id="SVGID_00000026873435891612225250000009100815929971598249_">
			<use xlink:href="#SVGID_1_"  style="overflow:visible;"/>
		</clipPath>
		<path style="clip-path:url(#SVGID_00000026873435891612225250000009100815929971598249_);fill:#FFFFFF;" d="M51.2,78.5L79.9,40
			h-12c-5.4,0-8.8,1.9-11.7,5.7L41.1,66L26.4,45.7c-2.8-3.8-6.3-5.7-11.7-5.7h-12l28.4,38.6L0,120.6h11.4c5.4,0,8.8-1.9,11.7-5.7
			l18-23.9l42.2,58.3c2.7,3.8,6.3,5.7,11.7,5.7h12.3L51.2,78.5 M281.4,120.6h16.3V40h-16.3V120.6z M152.3,120.6h16.3V40h-16.3V120.6
			z M399.1,149L458,40h-8.8c-5.4,0-9.5,1.6-11.7,5.7l-23.2,43.1l-20.1-43.1c-2.1-4.3-6.3-5.7-11.7-5.7H374l31,65.7L378,155h8.8
			C392.3,155,396.7,153.3,399.1,149z M188,40v80.6h16.3V65.3c5.1-7.1,12.3-11.5,21.3-11.5c12,0,20.2,7.6,20.2,22.8v36.3
			c0,4.6,3.2,7.7,7.6,7.7h8.7v-47c0-20.9-13.3-35.4-32.5-35.4c-10.3,0-18.8,3.6-25.3,9.6V40H188z M327.9,92c0,17.5,10.7,30,30,30
			c4.7,0,8.7-0.6,11.9-1.6l-3.3-14.2c-2.1,0.5-4.6,0.8-7.4,0.8c-7.9,0-14.9-4.3-14.9-15.3V54.5H367L360.2,40h-16.1V7.6l-16.3,7.1V40
			h-17.2v14.5h17.2L327.9,92L327.9,92z M102.2,54.5v66h16.3v-66h20.9V40h-20.9v-6c0-13.7,8.2-18.3,16.3-18.3c2.1,0,3.9,0.3,5.5,0.8
			l3.3-14.4c-2.1-0.8-5.4-1.6-10.1-1.6c-20.2,0-31.3,15-31.3,33.2V40h-8.5L83.4,54.5H102.2z"/>
	</g>
</g>
</svg>
